<svg width="235" height="30" viewBox="0 0 235 30" fill="none" xmlns="http://www.w3.org/2000/svg">
<path d="M5.16 7.92H0.87V3.36H16.44V7.92H12.15V24H5.16V7.92ZM24.9759 24.24C23.2959 24.24 21.7959 23.91 20.4759 23.25C19.1759 22.59 18.1559 21.68 17.4159 20.52C16.6959 19.34 16.3359 17.99 16.3359 16.47C16.3359 14.95 16.7059 13.61 17.4459 12.45C18.1859 11.27 19.2059 10.36 20.5059 9.72C21.8259 9.08 23.3259 8.76 25.0059 8.76C26.7059 8.76 28.2059 9.09 29.5059 9.75C30.8259 10.39 31.8459 11.29 32.5659 12.45C33.2859 13.61 33.6459 14.95 33.6459 16.47C33.6459 18.01 33.2759 19.37 32.5359 20.55C31.8159 21.71 30.7959 22.62 29.4759 23.28C28.1759 23.92 26.6759 24.24 24.9759 24.24ZM25.0359 19.74C25.8559 19.74 26.5259 19.44 27.0459 18.84C27.5859 18.22 27.8559 17.43 27.8559 16.47C27.8559 15.51 27.5859 14.73 27.0459 14.13C26.5259 13.51 25.8559 13.2 25.0359 13.2C24.2159 13.2 23.5359 13.51 22.9959 14.13C22.4759 14.73 22.2159 15.51 22.2159 16.47C22.2159 17.43 22.4759 18.22 22.9959 18.84C23.5359 19.44 24.2159 19.74 25.0359 19.74ZM35.8945 9.18H42.2245V11.79C43.1845 9.77 44.8145 8.76 47.1145 8.76C48.4545 8.76 49.6845 9.1 50.8045 9.78C51.9445 10.44 52.8345 11.36 53.4745 12.54C54.1345 13.72 54.4645 15.04 54.4645 16.5C54.4645 17.96 54.1245 19.28 53.4445 20.46C52.7845 21.64 51.8845 22.57 50.7445 23.25C49.6245 23.91 48.4245 24.24 47.1445 24.24C44.8645 24.24 43.2245 23.23 42.2245 21.21V27.9L35.8945 29.1V9.18ZM45.2245 19.5C46.0445 19.5 46.7445 19.2 47.3245 18.6C47.9045 18 48.1945 17.3 48.1945 16.5C48.1945 15.66 47.8945 14.95 47.2945 14.37C46.7145 13.79 46.0245 13.5 45.2245 13.5C44.4045 13.5 43.7045 13.79 43.1245 14.37C42.5445 14.93 42.2545 15.6 42.2545 16.38V16.5C42.2545 17.34 42.5445 18.05 43.1245 18.63C43.7245 19.21 44.4245 19.5 45.2245 19.5ZM72.8339 24.48C69.0739 24.48 66.7739 22.74 65.9339 19.26L65.1839 16.17H63.7739V24H57.2039V3.36H66.2939C68.0139 3.36 69.5239 3.62 70.8239 4.14C72.1439 4.64 73.1639 5.35 73.8839 6.27C74.6039 7.19 74.9639 8.25 74.9639 9.45C74.9639 10.79 74.6339 11.92 73.9739 12.84C73.3339 13.74 72.3339 14.48 70.9739 15.06C71.1139 15.82 71.2739 16.51 71.4539 17.13C71.6939 17.89 72.0239 18.42 72.4439 18.72C72.8639 19.02 73.4739 19.17 74.2739 19.17C74.5539 19.17 74.9939 19.13 75.5939 19.05V23.94C74.6539 24.3 73.7339 24.48 72.8339 24.48ZM64.9139 11.97C66.3939 11.97 67.4339 11.81 68.0339 11.49C68.6539 11.15 68.9639 10.58 68.9639 9.78C68.9639 9.1 68.7139 8.61 68.2139 8.31C67.7139 7.99 66.9239 7.83 65.8439 7.83H63.7739V11.97H64.9139ZM84.3312 24.24C83.0312 24.24 81.8112 23.9 80.6712 23.22C79.5512 22.52 78.6512 21.58 77.9712 20.4C77.2912 19.2 76.9512 17.87 76.9512 16.41C76.9512 14.97 77.2912 13.67 77.9712 12.51C78.6512 11.33 79.5612 10.41 80.7012 9.75C81.8412 9.09 83.0512 8.76 84.3312 8.76C85.3712 8.76 86.3312 9.05 87.2112 9.63C88.1112 10.21 88.7912 11.08 89.2512 12.24V8.76H95.5512V24H89.2512V21.21C88.2512 23.23 86.6112 24.24 84.3312 24.24ZM86.2812 19.5C87.0812 19.5 87.7612 19.22 88.3212 18.66C88.9012 18.08 89.2112 17.4 89.2512 16.62V16.38C89.2112 15.58 88.8912 14.9 88.2912 14.34C87.7112 13.78 87.0412 13.5 86.2812 13.5C85.4412 13.5 84.7212 13.8 84.1212 14.4C83.5412 14.98 83.2512 15.68 83.2512 16.5C83.2512 17.34 83.5512 18.05 84.1512 18.63C84.7512 19.21 85.4612 19.5 86.2812 19.5ZM105.16 24.24C103.4 24.24 102.03 23.74 101.05 22.74C100.07 21.72 99.5798 20.32 99.5798 18.54V12.69H97.6598V8.97H100.03L102.82 3.3H105.85V8.97H109.33V12.69H105.85V17.79C105.85 18.29 106.01 18.68 106.33 18.96C106.65 19.24 107.1 19.38 107.68 19.38C108.22 19.38 108.71 19.26 109.15 19.02L109.39 23.22C108.89 23.52 108.24 23.77 107.44 23.97C106.66 24.15 105.9 24.24 105.16 24.24ZM119.104 24.24C117.444 24.24 115.964 23.91 114.664 23.25C113.384 22.57 112.384 21.65 111.664 20.49C110.944 19.31 110.584 17.98 110.584 16.5C110.584 14.98 110.954 13.63 111.694 12.45C112.434 11.27 113.434 10.36 114.694 9.72C115.954 9.08 117.354 8.76 118.894 8.76C120.374 8.76 121.634 9.09 122.674 9.75C123.734 10.39 124.524 11.27 125.044 12.39C125.564 13.49 125.824 14.73 125.824 16.11C125.824 16.47 125.804 16.73 125.764 16.89L116.764 18.06C117.004 18.76 117.394 19.27 117.934 19.59C118.474 19.89 119.184 20.04 120.064 20.04C121.424 20.04 122.894 19.69 124.474 18.99L125.224 23.01C123.364 23.83 121.324 24.24 119.104 24.24ZM121.174 14.28C120.854 13.02 120.094 12.39 118.894 12.39C118.174 12.39 117.604 12.66 117.184 13.2C116.764 13.74 116.544 14.44 116.524 15.3L121.174 14.28Z" fill="#F4A42B"/>
<path d="M143.77 24.48C141.77 24.48 139.95 24.01 138.31 23.07C136.69 22.11 135.4 20.81 134.44 19.17C133.5 17.51 133.03 15.68 133.03 13.68C133.03 11.64 133.49 9.8 134.41 8.16C135.33 6.52 136.59 5.24 138.19 4.32C139.79 3.38 141.59 2.91 143.59 2.91C144.67 2.91 145.73 3.04 146.77 3.3C147.81 3.56 148.7 3.93 149.44 4.41L148.63 9.06C147.19 8.52 145.89 8.25 144.73 8.25C143.13 8.25 141.9 8.72 141.04 9.66C140.18 10.58 139.75 11.91 139.75 13.65C139.75 15.35 140.2 16.68 141.1 17.64C142.02 18.58 143.29 19.05 144.91 19.05C145.53 19.05 146.11 18.99 146.65 18.87C147.19 18.75 147.85 18.53 148.63 18.21L149.47 22.95C147.73 23.97 145.83 24.48 143.77 24.48ZM158.071 24.24C156.771 24.24 155.551 23.9 154.411 23.22C153.291 22.52 152.391 21.58 151.711 20.4C151.031 19.2 150.691 17.87 150.691 16.41C150.691 14.97 151.031 13.67 151.711 12.51C152.391 11.33 153.301 10.41 154.441 9.75C155.581 9.09 156.791 8.76 158.071 8.76C159.111 8.76 160.071 9.05 160.951 9.63C161.851 10.21 162.531 11.08 162.991 12.24V8.76H169.291V24H162.991V21.21C161.991 23.23 160.351 24.24 158.071 24.24ZM160.021 19.5C160.821 19.5 161.501 19.22 162.061 18.66C162.641 18.08 162.951 17.4 162.991 16.62V16.38C162.951 15.58 162.631 14.9 162.031 14.34C161.451 13.78 160.781 13.5 160.021 13.5C159.181 13.5 158.461 13.8 157.861 14.4C157.281 14.98 156.991 15.68 156.991 16.5C156.991 17.34 157.291 18.05 157.891 18.63C158.491 19.21 159.201 19.5 160.021 19.5ZM177.52 24.24C175.42 24.24 173.58 23.93 172 23.31L172.69 19.74C174.13 20.26 175.53 20.52 176.89 20.52C177.89 20.52 178.39 20.24 178.39 19.68C178.39 19.4 178.24 19.17 177.94 18.99C177.66 18.81 177.12 18.65 176.32 18.51C174.66 18.19 173.46 17.65 172.72 16.89C172 16.13 171.64 15.05 171.64 13.65C171.72 12.07 172.35 10.86 173.53 10.02C174.71 9.18 176.32 8.76 178.36 8.76C179.4 8.76 180.29 8.83 181.03 8.97C181.79 9.09 182.48 9.3 183.1 9.6L182.47 13.17C181.89 12.95 181.25 12.78 180.55 12.66C179.87 12.54 179.3 12.48 178.84 12.48C178.16 12.48 177.69 12.55 177.43 12.69C177.17 12.83 177.04 13.02 177.04 13.26C177.04 13.7 177.54 14.01 178.54 14.19C180.36 14.51 181.72 15.07 182.62 15.87C183.52 16.67 183.97 17.76 183.97 19.14C183.97 20.72 183.41 21.97 182.29 22.89C181.19 23.79 179.6 24.24 177.52 24.24ZM191.468 24.24C189.788 24.24 188.478 23.7 187.538 22.62C186.598 21.54 186.128 20.07 186.128 18.21V8.97H192.488V17.94C192.488 18.4 192.608 18.76 192.848 19.02C193.108 19.26 193.438 19.38 193.838 19.38C194.238 19.38 194.648 19.26 195.068 19.02L195.398 23.19C194.958 23.53 194.378 23.79 193.658 23.97C192.958 24.15 192.228 24.24 191.468 24.24ZM189.308 6.72C188.368 6.72 187.568 6.43 186.908 5.85C186.268 5.25 185.948 4.52 185.948 3.66C185.948 2.8 186.288 2.08 186.968 1.5C187.648 0.919999 188.428 0.629999 189.308 0.629999C190.228 0.629999 191.018 0.929999 191.678 1.53C192.358 2.13 192.698 2.84 192.698 3.66C192.698 4.54 192.358 5.27 191.678 5.85C190.998 6.43 190.208 6.72 189.308 6.72ZM197.145 9.18H203.175V12.24C204.335 9.92 206.175 8.76 208.695 8.76C210.615 8.76 212.115 9.45 213.195 10.83C214.295 12.19 214.845 14.08 214.845 16.5V24H208.545V15.87C208.545 15.01 208.355 14.35 207.975 13.89C207.615 13.43 207.105 13.2 206.445 13.2C205.965 13.2 205.495 13.36 205.035 13.68C204.575 13.98 204.195 14.42 203.895 15C203.615 15.58 203.475 16.24 203.475 16.98V24H197.145V9.18ZM225.63 24.24C223.95 24.24 222.45 23.91 221.13 23.25C219.83 22.59 218.81 21.68 218.07 20.52C217.35 19.34 216.99 17.99 216.99 16.47C216.99 14.95 217.36 13.61 218.1 12.45C218.84 11.27 219.86 10.36 221.16 9.72C222.48 9.08 223.98 8.76 225.66 8.76C227.36 8.76 228.86 9.09 230.16 9.75C231.48 10.39 232.5 11.29 233.22 12.45C233.94 13.61 234.3 14.95 234.3 16.47C234.3 18.01 233.93 19.37 233.19 20.55C232.47 21.71 231.45 22.62 230.13 23.28C228.83 23.92 227.33 24.24 225.63 24.24ZM225.69 19.74C226.51 19.74 227.18 19.44 227.7 18.84C228.24 18.22 228.51 17.43 228.51 16.47C228.51 15.51 228.24 14.73 227.7 14.13C227.18 13.51 226.51 13.2 225.69 13.2C224.87 13.2 224.19 13.51 223.65 14.13C223.13 14.73 222.87 15.51 222.87 16.47C222.87 17.43 223.13 18.22 223.65 18.84C224.19 19.44 224.87 19.74 225.69 19.74Z" fill="white"/>
</svg>
