<svg width="67" height="45" viewBox="0 0 67 45" fill="none" xmlns="http://www.w3.org/2000/svg">
<path d="M36.6667 18.6667H49.3333L67 44.6667H54L36.6667 18.6667Z" fill="#F4A42B"/>
<path d="M21 18H32.8132L50.6667 44.6667H37.6667L21 18Z" fill="white"/>
<path d="M13.3333 28H24L34.3333 44.6667H23L13.3333 28Z" fill="white"/>
<path d="M7.66667 36.6667H15.3333L19.6667 44.6667H11.3333L7.66667 36.6667Z" fill="white"/>
<path fill-rule="evenodd" clip-rule="evenodd" d="M42.8497 28H51.6666C59.3986 28 65.6666 21.732 65.6666 14C65.6666 6.26801 59.3986 0 51.6666 0H24.1173L30.8075 10H51.6666C53.8758 10 55.6666 11.7909 55.6666 14C55.6666 16.2091 53.8758 18 51.6666 18H36.1596L42.8497 28Z" fill="#F4A42B"/>
<path d="M0 0H33V10H6.66667L0 0Z" fill="#F4A42B"/>
</svg>
