<svg width="323" height="45" viewBox="0 0 323 45" fill="none" xmlns="http://www.w3.org/2000/svg">
<path d="M92.16 17.92H87.87V13.36H103.44V17.92H99.15V34H92.16V17.92ZM111.976 34.24C110.296 34.24 108.796 33.91 107.476 33.25C106.176 32.59 105.156 31.68 104.416 30.52C103.696 29.34 103.336 27.99 103.336 26.47C103.336 24.95 103.706 23.61 104.446 22.45C105.186 21.27 106.206 20.36 107.506 19.72C108.826 19.08 110.326 18.76 112.006 18.76C113.706 18.76 115.206 19.09 116.506 19.75C117.826 20.39 118.846 21.29 119.566 22.45C120.286 23.61 120.646 24.95 120.646 26.47C120.646 28.01 120.276 29.37 119.536 30.55C118.816 31.71 117.796 32.62 116.476 33.28C115.176 33.92 113.676 34.24 111.976 34.24ZM112.036 29.74C112.856 29.74 113.526 29.44 114.046 28.84C114.586 28.22 114.856 27.43 114.856 26.47C114.856 25.51 114.586 24.73 114.046 24.13C113.526 23.51 112.856 23.2 112.036 23.2C111.216 23.2 110.536 23.51 109.996 24.13C109.476 24.73 109.216 25.51 109.216 26.47C109.216 27.43 109.476 28.22 109.996 28.84C110.536 29.44 111.216 29.74 112.036 29.74ZM122.895 19.18H129.225V21.79C130.185 19.77 131.815 18.76 134.115 18.76C135.455 18.76 136.685 19.1 137.805 19.78C138.945 20.44 139.835 21.36 140.475 22.54C141.135 23.72 141.465 25.04 141.465 26.5C141.465 27.96 141.125 29.28 140.445 30.46C139.785 31.64 138.885 32.57 137.745 33.25C136.625 33.91 135.425 34.24 134.145 34.24C131.865 34.24 130.225 33.23 129.225 31.21V37.9L122.895 39.1V19.18ZM132.225 29.5C133.045 29.5 133.745 29.2 134.325 28.6C134.905 28 135.195 27.3 135.195 26.5C135.195 25.66 134.895 24.95 134.295 24.37C133.715 23.79 133.025 23.5 132.225 23.5C131.405 23.5 130.705 23.79 130.125 24.37C129.545 24.93 129.255 25.6 129.255 26.38V26.5C129.255 27.34 129.545 28.05 130.125 28.63C130.725 29.21 131.425 29.5 132.225 29.5ZM159.834 34.48C156.074 34.48 153.774 32.74 152.934 29.26L152.184 26.17H150.774V34H144.204V13.36H153.294C155.014 13.36 156.524 13.62 157.824 14.14C159.144 14.64 160.164 15.35 160.884 16.27C161.604 17.19 161.964 18.25 161.964 19.45C161.964 20.79 161.634 21.92 160.974 22.84C160.334 23.74 159.334 24.48 157.974 25.06C158.114 25.82 158.274 26.51 158.454 27.13C158.694 27.89 159.024 28.42 159.444 28.72C159.864 29.02 160.474 29.17 161.274 29.17C161.554 29.17 161.994 29.13 162.594 29.05V33.94C161.654 34.3 160.734 34.48 159.834 34.48ZM151.914 21.97C153.394 21.97 154.434 21.81 155.034 21.49C155.654 21.15 155.964 20.58 155.964 19.78C155.964 19.1 155.714 18.61 155.214 18.31C154.714 17.99 153.924 17.83 152.844 17.83H150.774V21.97H151.914ZM171.331 34.24C170.031 34.24 168.811 33.9 167.671 33.22C166.551 32.52 165.651 31.58 164.971 30.4C164.291 29.2 163.951 27.87 163.951 26.41C163.951 24.97 164.291 23.67 164.971 22.51C165.651 21.33 166.561 20.41 167.701 19.75C168.841 19.09 170.051 18.76 171.331 18.76C172.371 18.76 173.331 19.05 174.211 19.63C175.111 20.21 175.791 21.08 176.251 22.24V18.76H182.551V34H176.251V31.21C175.251 33.23 173.611 34.24 171.331 34.24ZM173.281 29.5C174.081 29.5 174.761 29.22 175.321 28.66C175.901 28.08 176.211 27.4 176.251 26.62V26.38C176.211 25.58 175.891 24.9 175.291 24.34C174.711 23.78 174.041 23.5 173.281 23.5C172.441 23.5 171.721 23.8 171.121 24.4C170.541 24.98 170.251 25.68 170.251 26.5C170.251 27.34 170.551 28.05 171.151 28.63C171.751 29.21 172.461 29.5 173.281 29.5ZM192.16 34.24C190.4 34.24 189.03 33.74 188.05 32.74C187.07 31.72 186.58 30.32 186.58 28.54V22.69H184.66V18.97H187.03L189.82 13.3H192.85V18.97H196.33V22.69H192.85V27.79C192.85 28.29 193.01 28.68 193.33 28.96C193.65 29.24 194.1 29.38 194.68 29.38C195.22 29.38 195.71 29.26 196.15 29.02L196.39 33.22C195.89 33.52 195.24 33.77 194.44 33.97C193.66 34.15 192.9 34.24 192.16 34.24ZM206.104 34.24C204.444 34.24 202.964 33.91 201.664 33.25C200.384 32.57 199.384 31.65 198.664 30.49C197.944 29.31 197.584 27.98 197.584 26.5C197.584 24.98 197.954 23.63 198.694 22.45C199.434 21.27 200.434 20.36 201.694 19.72C202.954 19.08 204.354 18.76 205.894 18.76C207.374 18.76 208.634 19.09 209.674 19.75C210.734 20.39 211.524 21.27 212.044 22.39C212.564 23.49 212.824 24.73 212.824 26.11C212.824 26.47 212.804 26.73 212.764 26.89L203.764 28.06C204.004 28.76 204.394 29.27 204.934 29.59C205.474 29.89 206.184 30.04 207.064 30.04C208.424 30.04 209.894 29.69 211.474 28.99L212.224 33.01C210.364 33.83 208.324 34.24 206.104 34.24ZM208.174 24.28C207.854 23.02 207.094 22.39 205.894 22.39C205.174 22.39 204.604 22.66 204.184 23.2C203.764 23.74 203.544 24.44 203.524 25.3L208.174 24.28Z" fill="#F4A42B"/>
<path d="M230.77 34.48C228.77 34.48 226.95 34.01 225.31 33.07C223.69 32.11 222.4 30.81 221.44 29.17C220.5 27.51 220.03 25.68 220.03 23.68C220.03 21.64 220.49 19.8 221.41 18.16C222.33 16.52 223.59 15.24 225.19 14.32C226.79 13.38 228.59 12.91 230.59 12.91C231.67 12.91 232.73 13.04 233.77 13.3C234.81 13.56 235.7 13.93 236.44 14.41L235.63 19.06C234.19 18.52 232.89 18.25 231.73 18.25C230.13 18.25 228.9 18.72 228.04 19.66C227.18 20.58 226.75 21.91 226.75 23.65C226.75 25.35 227.2 26.68 228.1 27.64C229.02 28.58 230.29 29.05 231.91 29.05C232.53 29.05 233.11 28.99 233.65 28.87C234.19 28.75 234.85 28.53 235.63 28.21L236.47 32.95C234.73 33.97 232.83 34.48 230.77 34.48ZM245.071 34.24C243.771 34.24 242.551 33.9 241.411 33.22C240.291 32.52 239.391 31.58 238.711 30.4C238.031 29.2 237.691 27.87 237.691 26.41C237.691 24.97 238.031 23.67 238.711 22.51C239.391 21.33 240.301 20.41 241.441 19.75C242.581 19.09 243.791 18.76 245.071 18.76C246.111 18.76 247.071 19.05 247.951 19.63C248.851 20.21 249.531 21.08 249.991 22.24V18.76H256.291V34H249.991V31.21C248.991 33.23 247.351 34.24 245.071 34.24ZM247.021 29.5C247.821 29.5 248.501 29.22 249.061 28.66C249.641 28.08 249.951 27.4 249.991 26.62V26.38C249.951 25.58 249.631 24.9 249.031 24.34C248.451 23.78 247.781 23.5 247.021 23.5C246.181 23.5 245.461 23.8 244.861 24.4C244.281 24.98 243.991 25.68 243.991 26.5C243.991 27.34 244.291 28.05 244.891 28.63C245.491 29.21 246.201 29.5 247.021 29.5ZM264.52 34.24C262.42 34.24 260.58 33.93 259 33.31L259.69 29.74C261.13 30.26 262.53 30.52 263.89 30.52C264.89 30.52 265.39 30.24 265.39 29.68C265.39 29.4 265.24 29.17 264.94 28.99C264.66 28.81 264.12 28.65 263.32 28.51C261.66 28.19 260.46 27.65 259.72 26.89C259 26.13 258.64 25.05 258.64 23.65C258.72 22.07 259.35 20.86 260.53 20.02C261.71 19.18 263.32 18.76 265.36 18.76C266.4 18.76 267.29 18.83 268.03 18.97C268.79 19.09 269.48 19.3 270.1 19.6L269.47 23.17C268.89 22.95 268.25 22.78 267.55 22.66C266.87 22.54 266.3 22.48 265.84 22.48C265.16 22.48 264.69 22.55 264.43 22.69C264.17 22.83 264.04 23.02 264.04 23.26C264.04 23.7 264.54 24.01 265.54 24.19C267.36 24.51 268.72 25.07 269.62 25.87C270.52 26.67 270.97 27.76 270.97 29.14C270.97 30.72 270.41 31.97 269.29 32.89C268.19 33.79 266.6 34.24 264.52 34.24ZM278.468 34.24C276.788 34.24 275.478 33.7 274.538 32.62C273.598 31.54 273.128 30.07 273.128 28.21V18.97H279.488V27.94C279.488 28.4 279.608 28.76 279.848 29.02C280.108 29.26 280.438 29.38 280.838 29.38C281.238 29.38 281.648 29.26 282.068 29.02L282.398 33.19C281.958 33.53 281.378 33.79 280.658 33.97C279.958 34.15 279.228 34.24 278.468 34.24ZM276.308 16.72C275.368 16.72 274.568 16.43 273.908 15.85C273.268 15.25 272.948 14.52 272.948 13.66C272.948 12.8 273.288 12.08 273.968 11.5C274.648 10.92 275.428 10.63 276.308 10.63C277.228 10.63 278.018 10.93 278.678 11.53C279.358 12.13 279.698 12.84 279.698 13.66C279.698 14.54 279.358 15.27 278.678 15.85C277.998 16.43 277.208 16.72 276.308 16.72ZM284.145 19.18H290.175V22.24C291.335 19.92 293.175 18.76 295.695 18.76C297.615 18.76 299.115 19.45 300.195 20.83C301.295 22.19 301.845 24.08 301.845 26.5V34H295.545V25.87C295.545 25.01 295.355 24.35 294.975 23.89C294.615 23.43 294.105 23.2 293.445 23.2C292.965 23.2 292.495 23.36 292.035 23.68C291.575 23.98 291.195 24.42 290.895 25C290.615 25.58 290.475 26.24 290.475 26.98V34H284.145V19.18ZM312.63 34.24C310.95 34.24 309.45 33.91 308.13 33.25C306.83 32.59 305.81 31.68 305.07 30.52C304.35 29.34 303.99 27.99 303.99 26.47C303.99 24.95 304.36 23.61 305.1 22.45C305.84 21.27 306.86 20.36 308.16 19.72C309.48 19.08 310.98 18.76 312.66 18.76C314.36 18.76 315.86 19.09 317.16 19.75C318.48 20.39 319.5 21.29 320.22 22.45C320.94 23.61 321.3 24.95 321.3 26.47C321.3 28.01 320.93 29.37 320.19 30.55C319.47 31.71 318.45 32.62 317.13 33.28C315.83 33.92 314.33 34.24 312.63 34.24ZM312.69 29.74C313.51 29.74 314.18 29.44 314.7 28.84C315.24 28.22 315.51 27.43 315.51 26.47C315.51 25.51 315.24 24.73 314.7 24.13C314.18 23.51 313.51 23.2 312.69 23.2C311.87 23.2 311.19 23.51 310.65 24.13C310.13 24.73 309.87 25.51 309.87 26.47C309.87 27.43 310.13 28.22 310.65 28.84C311.19 29.44 311.87 29.74 312.69 29.74Z" fill="#090B34"/>
<path d="M36.6667 18.6667H49.3334L67 44.6667H54L36.6667 18.6667Z" fill="#F4A42B"/>
<path d="M21 18H32.8132L50.6667 44.6667H37.6667L21 18Z" fill="#090B34"/>
<path d="M13.3333 28H24L34.3333 44.6667H23L13.3333 28Z" fill="#090B34"/>
<path d="M7.66669 36.6667H15.3334L19.6667 44.6667H11.3334L7.66669 36.6667Z" fill="#090B34"/>
<path fill-rule="evenodd" clip-rule="evenodd" d="M42.8498 28H51.6667C59.3987 28 65.6667 21.732 65.6667 14C65.6667 6.26801 59.3987 0 51.6667 0H24.1174L30.8075 10H51.6667C53.8758 10 55.6667 11.7909 55.6667 14C55.6667 16.2091 53.8758 18 51.6667 18H36.1596L42.8498 28Z" fill="#F4A42B"/>
<path d="M0 0H33V10H6.66667L0 0Z" fill="#F4A42B"/>
</svg>
