<svg width="38" height="27" viewBox="0 0 38 27" fill="none" xmlns="http://www.w3.org/2000/svg">
<path d="M0 3.375C0 1.51104 1.41777 0 3.16667 0H34.8333C36.5822 0 38 1.51104 38 3.375V23.625C38 25.489 36.5822 27 34.8333 27H3.16667C1.41776 27 0 25.489 0 23.625V3.375Z" fill="#FDEACE"/>
<path d="M22.9897 5.50749L14.7875 5.5423L15.0103 21.4926L23.2125 21.4578L22.9897 5.50749Z" fill="#FF5F00"/>
<path d="M15.3342 13.5448C15.2888 10.3011 16.6603 7.4181 18.8043 5.5473C17.1904 4.20015 15.1658 3.39068 12.9696 3.39998C7.76665 3.422 3.6209 7.98103 3.69958 13.5941C3.77826 19.2071 8.05131 23.7305 13.2542 23.7085C15.4504 23.6992 17.4521 22.8727 19.028 21.512C16.8323 19.6878 15.3797 16.7885 15.3342 13.5448Z" fill="#EB001B"/>
<path d="M34.3004 13.406C34.3791 19.019 30.2334 23.5781 25.0305 23.6001C22.8342 23.6094 20.8096 22.7999 19.1957 21.4528C21.3659 19.5819 22.7112 16.699 22.6658 13.4553C22.6203 10.2115 21.1681 7.34047 18.972 5.48805C20.5479 4.1274 22.5496 3.30089 24.7458 3.29159C29.9487 3.26957 34.2222 7.82117 34.3004 13.406Z" fill="#F79E1B"/>
</svg>
