<svg width="39" height="27" viewBox="0 0 39 27" fill="none" xmlns="http://www.w3.org/2000/svg">
<path d="M0 3.375C0 1.51104 1.45507 0 3.25 0H35.75C37.5449 0 39 1.51104 39 3.375V23.625C39 25.489 37.5449 27 35.75 27H3.25C1.45507 27 0 25.489 0 23.625V3.375Z" fill="#FCE6CF"/>
<path d="M24.9523 16.1077C25.2762 16.2519 25.415 16.7323 25.415 16.9726C25.4612 17.357 25.3687 17.5492 25.2299 17.5492C25.0911 17.5492 24.906 17.405 24.7209 17.0687C24.5359 16.7323 24.4433 16.396 24.5359 16.2038C24.6747 16.1077 24.8135 16.0597 24.9523 16.1077Z" fill="#F28A1A"/>
<path d="M23.0554 17.5972C23.2404 17.5972 23.4718 17.6933 23.7031 17.8855C24.0733 18.2219 24.2121 18.6062 24.027 18.8945C23.9345 19.0387 23.7031 19.1348 23.518 19.1348C23.2867 19.1348 23.0554 19.0387 22.9166 18.8945C22.5464 18.5582 22.4539 18.0777 22.6852 17.7894C22.7315 17.6933 22.8703 17.5972 23.0554 17.5972Z" fill="#F28A1A"/>
<path d="M18.6598 21.393C13.8479 21.393 9.96136 17.357 9.96136 12.408C9.96136 7.45908 13.8479 3.375 18.6598 3.375C23.4718 3.375 27.3583 7.41103 27.3583 12.408C27.3583 14.0897 26.8956 15.6753 26.1553 17.0206C26.1091 17.0687 26.0628 17.0687 26.0628 16.9726C25.7389 14.7624 24.4434 13.5612 22.5927 13.1768C22.4076 13.1287 22.4076 13.0326 22.6389 13.0326C23.2404 12.9846 24.027 12.9846 24.4897 13.0807C24.5359 12.8405 24.5359 12.6002 24.5359 12.408C24.5359 9.14076 21.9449 6.45007 18.7986 6.45007C15.6524 6.45007 13.0614 9.14076 13.0614 12.408C13.0614 15.6753 15.6524 18.366 18.7986 18.366H19.0763C18.9837 17.8374 18.9374 17.3089 18.9837 16.7323C18.9837 16.348 19.0763 16.2999 19.2151 16.5882C20.0016 18.0296 21.1583 19.2789 23.3792 19.8074C25.1837 20.2398 26.9882 20.7203 28.9777 23.2669C29.1628 23.5071 28.8852 23.7474 28.7001 23.5552C26.7105 21.7293 24.9061 21.1047 23.2404 21.1047C21.1583 21.1528 19.9091 21.393 18.6598 21.393Z" fill="#F28A1A"/>
</svg>
