<svg width="0" height="0" class="hidden">
  <symbol fill="none" xmlns="http://www.w3.org/2000/svg" viewBox="0 0 18 18" id="check">
    <path d="M16 0H2C0.9 0 0 0.9 0 2V16C0 17.1 0.9 18 2 18H16C17.1 18 18 17.1 18 16V2C18 0.9 17.1 0 16 0ZM7.71 13.29C7.32 13.68 6.69 13.68 6.3 13.29L2.71 9.7C2.32 9.31 2.32 8.68 2.71 8.29C3.1 7.9 3.73 7.9 4.12 8.29L7 11.17L13.88 4.29C14.27 3.9 14.9 3.9 15.29 4.29C15.68 4.68 15.68 5.31 15.29 5.7L7.71 13.29Z" fill="#88C737"></path>
  </symbol>
  <symbol fill="none" xmlns="http://www.w3.org/2000/svg" viewBox="0 0 32 30" id="favorites">
    <g clip-path="url(#clip0_20:291)">
      <path d="M29.4109 11.8191C29.9884 11.2896 30.1922 10.5124 29.9431 9.79096C29.6939 9.06949 29.0434 8.55358 28.2454 8.44453L21.2677 7.49069C21.1308 7.47199 21.0124 7.39108 20.9511 7.27424L17.8306 1.3261C17.4738 0.645822 16.7512 0.223244 15.9448 0.223244C15.1384 0.223244 14.4158 0.645822 14.059 1.3261L10.9385 7.2743C10.8771 7.39108 10.7588 7.47199 10.6218 7.49074L3.64423 8.44453C2.84625 8.55358 2.19582 9.06949 1.94656 9.79096C1.6973 10.5124 1.90122 11.2896 2.47871 11.8191L7.52775 16.4491C7.62685 16.54 7.67213 16.671 7.64871 16.7994L6.45678 23.337C6.3205 24.0847 6.64102 24.8261 7.29338 25.272C7.94574 25.718 8.79454 25.7756 9.50819 25.4227L15.7491 22.3361C15.8717 22.2754 16.018 22.2754 16.1406 22.3361L22.3816 25.4227C22.692 25.5762 23.0279 25.6521 23.3622 25.6521C23.7963 25.6521 24.2277 25.5241 24.5962 25.272C25.2486 24.826 25.5691 24.0846 25.4328 23.337L24.2409 16.7993C24.2175 16.6709 24.2627 16.54 24.3618 16.449L29.4109 11.8191ZM22.5828 17.067L23.7747 23.6047C23.8146 23.8235 23.671 23.9483 23.6074 23.9917C23.5438 24.035 23.3733 24.1251 23.1645 24.0217L16.9235 20.9351C16.6171 20.7836 16.2811 20.7078 15.9449 20.7078C15.6088 20.7078 15.2726 20.7836 14.9663 20.935L8.72541 24.0216C8.51651 24.1249 8.34604 24.035 8.28244 23.9916C8.21885 23.9481 8.07523 23.8234 8.11515 23.6046L9.30708 17.067C9.42411 16.4251 9.19808 15.7705 8.70224 15.3158L3.6532 10.6858C3.48422 10.5308 3.52247 10.3505 3.54682 10.2802C3.57105 10.2098 3.65283 10.0427 3.88633 10.0109L10.8638 9.05701C11.5489 8.96338 12.1409 8.55885 12.4473 7.97473L15.5678 2.02652C15.6722 1.82748 15.8663 1.80598 15.945 1.80598C16.0235 1.80598 16.2176 1.82742 16.3221 2.02652V2.02658L19.4426 7.97479C19.749 8.55891 20.3409 8.96344 21.026 9.05707L28.0036 10.0109C28.2371 10.0428 28.3188 10.2098 28.3431 10.2802C28.3674 10.3506 28.4057 10.5309 28.2366 10.6859L23.1876 15.3159C22.6918 15.7705 22.4658 16.4251 22.5828 17.067Z" fill="url(#paint0_linear_20:291)"></path>
      <path d="M25.772 1.32567C25.396 1.0688 24.87 1.1472 24.597 1.50075L23.704 2.65692C23.431 3.01048 23.5143 3.50542 23.8901 3.76229C24.0396 3.86431 24.2125 3.91347 24.3839 3.91347C24.6441 3.91347 24.9006 3.80032 25.0651 3.58727L25.9581 2.4311C26.2311 2.07749 26.1479 1.58255 25.772 1.32567Z" fill="url(#paint1_linear_20:291)"></path>
      <path d="M8.18161 2.65225L7.28865 1.49608C7.01566 1.14264 6.48961 1.06425 6.11366 1.321C5.73784 1.57788 5.6545 2.07282 5.92756 2.42637L6.82052 3.58255C6.98514 3.79577 7.24162 3.90885 7.50185 3.90885C7.67331 3.90885 7.84634 3.85969 7.99557 3.75762C8.37139 3.50081 8.45473 3.00587 8.18161 2.65225Z" fill="url(#paint2_linear_20:291)"></path>
      <path d="M3.08647 17.9782C2.94291 17.5626 2.46837 17.3351 2.02647 17.4702L0.581667 17.9118C0.139764 18.0469 -0.10196 18.4934 0.0416045 18.9091C0.157079 19.2436 0.486872 19.4561 0.841453 19.4561C0.927592 19.4561 1.01523 19.4435 1.10161 19.4171L2.54641 18.9754C2.98825 18.8404 3.23004 18.394 3.08647 17.9782Z" fill="url(#paint3_linear_20:291)"></path>
      <path d="M15.945 26.7648C15.4804 26.7648 15.1038 27.1191 15.1038 27.5562V28.9854C15.1038 29.4224 15.4804 29.7768 15.945 29.7768C16.4095 29.7768 16.7862 29.4224 16.7862 28.9854V27.5562C16.7862 27.1191 16.4096 26.7648 15.945 26.7648Z" fill="url(#paint4_linear_20:291)"></path>
      <path d="M31.3078 17.913L29.863 17.4713C29.4213 17.3364 28.9466 17.5637 28.803 17.9794C28.6595 18.3952 28.9012 18.8416 29.3431 18.9766L30.7879 19.4183C30.8743 19.4447 30.9619 19.4572 31.048 19.4572C31.4026 19.4572 31.7324 19.2446 31.8479 18.9101C31.9915 18.4945 31.7497 18.048 31.3078 17.913Z" fill="url(#paint5_linear_20:291)"></path>
    </g>
    <defs>
      <linearGradient id="paint0_linear_20:291" x1="15.9448" y1="0.223244" x2="15.9448" y2="25.6521" gradientUnits="userSpaceOnUse">
        <stop stop-color="#D9C82C"></stop>
        <stop offset="1" stop-color="#F4A42B"></stop>
      </linearGradient>
      <linearGradient id="paint1_linear_20:291" x1="24.8311" y1="1.1745" x2="24.8311" y2="3.91347" gradientUnits="userSpaceOnUse">
        <stop stop-color="#D9C82C"></stop>
        <stop offset="1" stop-color="#F4A42B"></stop>
      </linearGradient>
      <linearGradient id="paint2_linear_20:291" x1="7.05461" y1="1.16991" x2="7.05461" y2="3.90885" gradientUnits="userSpaceOnUse">
        <stop stop-color="#D9C82C"></stop>
        <stop offset="1" stop-color="#F4A42B"></stop>
      </linearGradient>
      <linearGradient id="paint3_linear_20:291" x1="1.56404" y1="17.4312" x2="1.56404" y2="19.4561" gradientUnits="userSpaceOnUse">
        <stop stop-color="#D9C82C"></stop>
        <stop offset="1" stop-color="#F4A42B"></stop>
      </linearGradient>
      <linearGradient id="paint4_linear_20:291" x1="15.945" y1="26.7648" x2="15.945" y2="29.7768" gradientUnits="userSpaceOnUse">
        <stop stop-color="#D9C82C"></stop>
        <stop offset="1" stop-color="#F4A42B"></stop>
      </linearGradient>
      <linearGradient id="paint5_linear_20:291" x1="30.3255" y1="17.4324" x2="30.3255" y2="19.4572" gradientUnits="userSpaceOnUse">
        <stop stop-color="#D9C82C"></stop>
        <stop offset="1" stop-color="#F4A42B"></stop>
      </linearGradient>
      <clipPath id="clip0_20:291">
        <rect width="31.8893" height="30" fill="white"></rect>
      </clipPath>
    </defs>
  </symbol>
  <symbol fill="none" xmlns="http://www.w3.org/2000/svg" viewBox="0 0 40 38" id="horizontal">
    <path d="M35.6667 0.25H4.41667C2.125 0.25 0.25 2.125 0.25 4.41667V33.5833C0.25 35.875 2.125 37.75 4.41667 37.75H35.6667C37.9583 37.75 39.8333 35.875 39.8333 33.5833V4.41667C39.8333 2.125 37.9583 0.25 35.6667 0.25ZM35.6667 4.41667V10.6667H4.41667V4.41667H35.6667ZM25.25 33.5833H14.8333V14.8333H25.25V33.5833ZM4.41667 14.8333H10.6667V33.5833H4.41667V14.8333ZM29.4167 33.5833V14.8333H35.6667V33.5833H29.4167Z" fill="currentColor"></path>
  </symbol>
  <symbol fill="none" xmlns="http://www.w3.org/2000/svg" viewBox="0 0 323 45" id="logo">
    <path d="M92.16 17.92H87.87V13.36H103.44V17.92H99.15V34H92.16V17.92ZM111.976 34.24C110.296 34.24 108.796 33.91 107.476 33.25C106.176 32.59 105.156 31.68 104.416 30.52C103.696 29.34 103.336 27.99 103.336 26.47C103.336 24.95 103.706 23.61 104.446 22.45C105.186 21.27 106.206 20.36 107.506 19.72C108.826 19.08 110.326 18.76 112.006 18.76C113.706 18.76 115.206 19.09 116.506 19.75C117.826 20.39 118.846 21.29 119.566 22.45C120.286 23.61 120.646 24.95 120.646 26.47C120.646 28.01 120.276 29.37 119.536 30.55C118.816 31.71 117.796 32.62 116.476 33.28C115.176 33.92 113.676 34.24 111.976 34.24ZM112.036 29.74C112.856 29.74 113.526 29.44 114.046 28.84C114.586 28.22 114.856 27.43 114.856 26.47C114.856 25.51 114.586 24.73 114.046 24.13C113.526 23.51 112.856 23.2 112.036 23.2C111.216 23.2 110.536 23.51 109.996 24.13C109.476 24.73 109.216 25.51 109.216 26.47C109.216 27.43 109.476 28.22 109.996 28.84C110.536 29.44 111.216 29.74 112.036 29.74ZM122.895 19.18H129.225V21.79C130.185 19.77 131.815 18.76 134.115 18.76C135.455 18.76 136.685 19.1 137.805 19.78C138.945 20.44 139.835 21.36 140.475 22.54C141.135 23.72 141.465 25.04 141.465 26.5C141.465 27.96 141.125 29.28 140.445 30.46C139.785 31.64 138.885 32.57 137.745 33.25C136.625 33.91 135.425 34.24 134.145 34.24C131.865 34.24 130.225 33.23 129.225 31.21V37.9L122.895 39.1V19.18ZM132.225 29.5C133.045 29.5 133.745 29.2 134.325 28.6C134.905 28 135.195 27.3 135.195 26.5C135.195 25.66 134.895 24.95 134.295 24.37C133.715 23.79 133.025 23.5 132.225 23.5C131.405 23.5 130.705 23.79 130.125 24.37C129.545 24.93 129.255 25.6 129.255 26.38V26.5C129.255 27.34 129.545 28.05 130.125 28.63C130.725 29.21 131.425 29.5 132.225 29.5ZM159.834 34.48C156.074 34.48 153.774 32.74 152.934 29.26L152.184 26.17H150.774V34H144.204V13.36H153.294C155.014 13.36 156.524 13.62 157.824 14.14C159.144 14.64 160.164 15.35 160.884 16.27C161.604 17.19 161.964 18.25 161.964 19.45C161.964 20.79 161.634 21.92 160.974 22.84C160.334 23.74 159.334 24.48 157.974 25.06C158.114 25.82 158.274 26.51 158.454 27.13C158.694 27.89 159.024 28.42 159.444 28.72C159.864 29.02 160.474 29.17 161.274 29.17C161.554 29.17 161.994 29.13 162.594 29.05V33.94C161.654 34.3 160.734 34.48 159.834 34.48ZM151.914 21.97C153.394 21.97 154.434 21.81 155.034 21.49C155.654 21.15 155.964 20.58 155.964 19.78C155.964 19.1 155.714 18.61 155.214 18.31C154.714 17.99 153.924 17.83 152.844 17.83H150.774V21.97H151.914ZM171.331 34.24C170.031 34.24 168.811 33.9 167.671 33.22C166.551 32.52 165.651 31.58 164.971 30.4C164.291 29.2 163.951 27.87 163.951 26.41C163.951 24.97 164.291 23.67 164.971 22.51C165.651 21.33 166.561 20.41 167.701 19.75C168.841 19.09 170.051 18.76 171.331 18.76C172.371 18.76 173.331 19.05 174.211 19.63C175.111 20.21 175.791 21.08 176.251 22.24V18.76H182.551V34H176.251V31.21C175.251 33.23 173.611 34.24 171.331 34.24ZM173.281 29.5C174.081 29.5 174.761 29.22 175.321 28.66C175.901 28.08 176.211 27.4 176.251 26.62V26.38C176.211 25.58 175.891 24.9 175.291 24.34C174.711 23.78 174.041 23.5 173.281 23.5C172.441 23.5 171.721 23.8 171.121 24.4C170.541 24.98 170.251 25.68 170.251 26.5C170.251 27.34 170.551 28.05 171.151 28.63C171.751 29.21 172.461 29.5 173.281 29.5ZM192.16 34.24C190.4 34.24 189.03 33.74 188.05 32.74C187.07 31.72 186.58 30.32 186.58 28.54V22.69H184.66V18.97H187.03L189.82 13.3H192.85V18.97H196.33V22.69H192.85V27.79C192.85 28.29 193.01 28.68 193.33 28.96C193.65 29.24 194.1 29.38 194.68 29.38C195.22 29.38 195.71 29.26 196.15 29.02L196.39 33.22C195.89 33.52 195.24 33.77 194.44 33.97C193.66 34.15 192.9 34.24 192.16 34.24ZM206.104 34.24C204.444 34.24 202.964 33.91 201.664 33.25C200.384 32.57 199.384 31.65 198.664 30.49C197.944 29.31 197.584 27.98 197.584 26.5C197.584 24.98 197.954 23.63 198.694 22.45C199.434 21.27 200.434 20.36 201.694 19.72C202.954 19.08 204.354 18.76 205.894 18.76C207.374 18.76 208.634 19.09 209.674 19.75C210.734 20.39 211.524 21.27 212.044 22.39C212.564 23.49 212.824 24.73 212.824 26.11C212.824 26.47 212.804 26.73 212.764 26.89L203.764 28.06C204.004 28.76 204.394 29.27 204.934 29.59C205.474 29.89 206.184 30.04 207.064 30.04C208.424 30.04 209.894 29.69 211.474 28.99L212.224 33.01C210.364 33.83 208.324 34.24 206.104 34.24ZM208.174 24.28C207.854 23.02 207.094 22.39 205.894 22.39C205.174 22.39 204.604 22.66 204.184 23.2C203.764 23.74 203.544 24.44 203.524 25.3L208.174 24.28Z" fill="#F4A42B"></path>
    <path d="M230.77 34.48C228.77 34.48 226.95 34.01 225.31 33.07C223.69 32.11 222.4 30.81 221.44 29.17C220.5 27.51 220.03 25.68 220.03 23.68C220.03 21.64 220.49 19.8 221.41 18.16C222.33 16.52 223.59 15.24 225.19 14.32C226.79 13.38 228.59 12.91 230.59 12.91C231.67 12.91 232.73 13.04 233.77 13.3C234.81 13.56 235.7 13.93 236.44 14.41L235.63 19.06C234.19 18.52 232.89 18.25 231.73 18.25C230.13 18.25 228.9 18.72 228.04 19.66C227.18 20.58 226.75 21.91 226.75 23.65C226.75 25.35 227.2 26.68 228.1 27.64C229.02 28.58 230.29 29.05 231.91 29.05C232.53 29.05 233.11 28.99 233.65 28.87C234.19 28.75 234.85 28.53 235.63 28.21L236.47 32.95C234.73 33.97 232.83 34.48 230.77 34.48ZM245.071 34.24C243.771 34.24 242.551 33.9 241.411 33.22C240.291 32.52 239.391 31.58 238.711 30.4C238.031 29.2 237.691 27.87 237.691 26.41C237.691 24.97 238.031 23.67 238.711 22.51C239.391 21.33 240.301 20.41 241.441 19.75C242.581 19.09 243.791 18.76 245.071 18.76C246.111 18.76 247.071 19.05 247.951 19.63C248.851 20.21 249.531 21.08 249.991 22.24V18.76H256.291V34H249.991V31.21C248.991 33.23 247.351 34.24 245.071 34.24ZM247.021 29.5C247.821 29.5 248.501 29.22 249.061 28.66C249.641 28.08 249.951 27.4 249.991 26.62V26.38C249.951 25.58 249.631 24.9 249.031 24.34C248.451 23.78 247.781 23.5 247.021 23.5C246.181 23.5 245.461 23.8 244.861 24.4C244.281 24.98 243.991 25.68 243.991 26.5C243.991 27.34 244.291 28.05 244.891 28.63C245.491 29.21 246.201 29.5 247.021 29.5ZM264.52 34.24C262.42 34.24 260.58 33.93 259 33.31L259.69 29.74C261.13 30.26 262.53 30.52 263.89 30.52C264.89 30.52 265.39 30.24 265.39 29.68C265.39 29.4 265.24 29.17 264.94 28.99C264.66 28.81 264.12 28.65 263.32 28.51C261.66 28.19 260.46 27.65 259.72 26.89C259 26.13 258.64 25.05 258.64 23.65C258.72 22.07 259.35 20.86 260.53 20.02C261.71 19.18 263.32 18.76 265.36 18.76C266.4 18.76 267.29 18.83 268.03 18.97C268.79 19.09 269.48 19.3 270.1 19.6L269.47 23.17C268.89 22.95 268.25 22.78 267.55 22.66C266.87 22.54 266.3 22.48 265.84 22.48C265.16 22.48 264.69 22.55 264.43 22.69C264.17 22.83 264.04 23.02 264.04 23.26C264.04 23.7 264.54 24.01 265.54 24.19C267.36 24.51 268.72 25.07 269.62 25.87C270.52 26.67 270.97 27.76 270.97 29.14C270.97 30.72 270.41 31.97 269.29 32.89C268.19 33.79 266.6 34.24 264.52 34.24ZM278.468 34.24C276.788 34.24 275.478 33.7 274.538 32.62C273.598 31.54 273.128 30.07 273.128 28.21V18.97H279.488V27.94C279.488 28.4 279.608 28.76 279.848 29.02C280.108 29.26 280.438 29.38 280.838 29.38C281.238 29.38 281.648 29.26 282.068 29.02L282.398 33.19C281.958 33.53 281.378 33.79 280.658 33.97C279.958 34.15 279.228 34.24 278.468 34.24ZM276.308 16.72C275.368 16.72 274.568 16.43 273.908 15.85C273.268 15.25 272.948 14.52 272.948 13.66C272.948 12.8 273.288 12.08 273.968 11.5C274.648 10.92 275.428 10.63 276.308 10.63C277.228 10.63 278.018 10.93 278.678 11.53C279.358 12.13 279.698 12.84 279.698 13.66C279.698 14.54 279.358 15.27 278.678 15.85C277.998 16.43 277.208 16.72 276.308 16.72ZM284.145 19.18H290.175V22.24C291.335 19.92 293.175 18.76 295.695 18.76C297.615 18.76 299.115 19.45 300.195 20.83C301.295 22.19 301.845 24.08 301.845 26.5V34H295.545V25.87C295.545 25.01 295.355 24.35 294.975 23.89C294.615 23.43 294.105 23.2 293.445 23.2C292.965 23.2 292.495 23.36 292.035 23.68C291.575 23.98 291.195 24.42 290.895 25C290.615 25.58 290.475 26.24 290.475 26.98V34H284.145V19.18ZM312.63 34.24C310.95 34.24 309.45 33.91 308.13 33.25C306.83 32.59 305.81 31.68 305.07 30.52C304.35 29.34 303.99 27.99 303.99 26.47C303.99 24.95 304.36 23.61 305.1 22.45C305.84 21.27 306.86 20.36 308.16 19.72C309.48 19.08 310.98 18.76 312.66 18.76C314.36 18.76 315.86 19.09 317.16 19.75C318.48 20.39 319.5 21.29 320.22 22.45C320.94 23.61 321.3 24.95 321.3 26.47C321.3 28.01 320.93 29.37 320.19 30.55C319.47 31.71 318.45 32.62 317.13 33.28C315.83 33.92 314.33 34.24 312.63 34.24ZM312.69 29.74C313.51 29.74 314.18 29.44 314.7 28.84C315.24 28.22 315.51 27.43 315.51 26.47C315.51 25.51 315.24 24.73 314.7 24.13C314.18 23.51 313.51 23.2 312.69 23.2C311.87 23.2 311.19 23.51 310.65 24.13C310.13 24.73 309.87 25.51 309.87 26.47C309.87 27.43 310.13 28.22 310.65 28.84C311.19 29.44 311.87 29.74 312.69 29.74Z" fill="white"></path>
    <path d="M36.6667 18.6667H49.3333L67 44.6667H54L36.6667 18.6667Z" fill="#F4A42B"></path>
    <path d="M21 18H32.8132L50.6667 44.6667H37.6667L21 18Z" fill="white"></path>
    <path d="M13.3333 28H24L34.3333 44.6667H23L13.3333 28Z" fill="white"></path>
    <path d="M7.66667 36.6667H15.3333L19.6667 44.6667H11.3333L7.66667 36.6667Z" fill="white"></path>
    <path fill-rule="evenodd" clip-rule="evenodd" d="M42.8497 28H51.6666C59.3986 28 65.6666 21.732 65.6666 14C65.6666 6.26801 59.3986 0 51.6666 0H24.1173L30.8075 10H51.6666C53.8758 10 55.6666 11.7909 55.6666 14C55.6666 16.2091 53.8758 18 51.6666 18H36.1596L42.8497 28Z" fill="#F4A42B"></path>
    <path d="M0 0H33V10H6.66667L0 0Z" fill="#F4A42B"></path>
  </symbol>
  <symbol fill="none" xmlns="http://www.w3.org/2000/svg" viewBox="0 0 323 45" id="logo-black">
    <path d="M92.16 17.92H87.87V13.36H103.44V17.92H99.15V34H92.16V17.92ZM111.976 34.24C110.296 34.24 108.796 33.91 107.476 33.25C106.176 32.59 105.156 31.68 104.416 30.52C103.696 29.34 103.336 27.99 103.336 26.47C103.336 24.95 103.706 23.61 104.446 22.45C105.186 21.27 106.206 20.36 107.506 19.72C108.826 19.08 110.326 18.76 112.006 18.76C113.706 18.76 115.206 19.09 116.506 19.75C117.826 20.39 118.846 21.29 119.566 22.45C120.286 23.61 120.646 24.95 120.646 26.47C120.646 28.01 120.276 29.37 119.536 30.55C118.816 31.71 117.796 32.62 116.476 33.28C115.176 33.92 113.676 34.24 111.976 34.24ZM112.036 29.74C112.856 29.74 113.526 29.44 114.046 28.84C114.586 28.22 114.856 27.43 114.856 26.47C114.856 25.51 114.586 24.73 114.046 24.13C113.526 23.51 112.856 23.2 112.036 23.2C111.216 23.2 110.536 23.51 109.996 24.13C109.476 24.73 109.216 25.51 109.216 26.47C109.216 27.43 109.476 28.22 109.996 28.84C110.536 29.44 111.216 29.74 112.036 29.74ZM122.895 19.18H129.225V21.79C130.185 19.77 131.815 18.76 134.115 18.76C135.455 18.76 136.685 19.1 137.805 19.78C138.945 20.44 139.835 21.36 140.475 22.54C141.135 23.72 141.465 25.04 141.465 26.5C141.465 27.96 141.125 29.28 140.445 30.46C139.785 31.64 138.885 32.57 137.745 33.25C136.625 33.91 135.425 34.24 134.145 34.24C131.865 34.24 130.225 33.23 129.225 31.21V37.9L122.895 39.1V19.18ZM132.225 29.5C133.045 29.5 133.745 29.2 134.325 28.6C134.905 28 135.195 27.3 135.195 26.5C135.195 25.66 134.895 24.95 134.295 24.37C133.715 23.79 133.025 23.5 132.225 23.5C131.405 23.5 130.705 23.79 130.125 24.37C129.545 24.93 129.255 25.6 129.255 26.38V26.5C129.255 27.34 129.545 28.05 130.125 28.63C130.725 29.21 131.425 29.5 132.225 29.5ZM159.834 34.48C156.074 34.48 153.774 32.74 152.934 29.26L152.184 26.17H150.774V34H144.204V13.36H153.294C155.014 13.36 156.524 13.62 157.824 14.14C159.144 14.64 160.164 15.35 160.884 16.27C161.604 17.19 161.964 18.25 161.964 19.45C161.964 20.79 161.634 21.92 160.974 22.84C160.334 23.74 159.334 24.48 157.974 25.06C158.114 25.82 158.274 26.51 158.454 27.13C158.694 27.89 159.024 28.42 159.444 28.72C159.864 29.02 160.474 29.17 161.274 29.17C161.554 29.17 161.994 29.13 162.594 29.05V33.94C161.654 34.3 160.734 34.48 159.834 34.48ZM151.914 21.97C153.394 21.97 154.434 21.81 155.034 21.49C155.654 21.15 155.964 20.58 155.964 19.78C155.964 19.1 155.714 18.61 155.214 18.31C154.714 17.99 153.924 17.83 152.844 17.83H150.774V21.97H151.914ZM171.331 34.24C170.031 34.24 168.811 33.9 167.671 33.22C166.551 32.52 165.651 31.58 164.971 30.4C164.291 29.2 163.951 27.87 163.951 26.41C163.951 24.97 164.291 23.67 164.971 22.51C165.651 21.33 166.561 20.41 167.701 19.75C168.841 19.09 170.051 18.76 171.331 18.76C172.371 18.76 173.331 19.05 174.211 19.63C175.111 20.21 175.791 21.08 176.251 22.24V18.76H182.551V34H176.251V31.21C175.251 33.23 173.611 34.24 171.331 34.24ZM173.281 29.5C174.081 29.5 174.761 29.22 175.321 28.66C175.901 28.08 176.211 27.4 176.251 26.62V26.38C176.211 25.58 175.891 24.9 175.291 24.34C174.711 23.78 174.041 23.5 173.281 23.5C172.441 23.5 171.721 23.8 171.121 24.4C170.541 24.98 170.251 25.68 170.251 26.5C170.251 27.34 170.551 28.05 171.151 28.63C171.751 29.21 172.461 29.5 173.281 29.5ZM192.16 34.24C190.4 34.24 189.03 33.74 188.05 32.74C187.07 31.72 186.58 30.32 186.58 28.54V22.69H184.66V18.97H187.03L189.82 13.3H192.85V18.97H196.33V22.69H192.85V27.79C192.85 28.29 193.01 28.68 193.33 28.96C193.65 29.24 194.1 29.38 194.68 29.38C195.22 29.38 195.71 29.26 196.15 29.02L196.39 33.22C195.89 33.52 195.24 33.77 194.44 33.97C193.66 34.15 192.9 34.24 192.16 34.24ZM206.104 34.24C204.444 34.24 202.964 33.91 201.664 33.25C200.384 32.57 199.384 31.65 198.664 30.49C197.944 29.31 197.584 27.98 197.584 26.5C197.584 24.98 197.954 23.63 198.694 22.45C199.434 21.27 200.434 20.36 201.694 19.72C202.954 19.08 204.354 18.76 205.894 18.76C207.374 18.76 208.634 19.09 209.674 19.75C210.734 20.39 211.524 21.27 212.044 22.39C212.564 23.49 212.824 24.73 212.824 26.11C212.824 26.47 212.804 26.73 212.764 26.89L203.764 28.06C204.004 28.76 204.394 29.27 204.934 29.59C205.474 29.89 206.184 30.04 207.064 30.04C208.424 30.04 209.894 29.69 211.474 28.99L212.224 33.01C210.364 33.83 208.324 34.24 206.104 34.24ZM208.174 24.28C207.854 23.02 207.094 22.39 205.894 22.39C205.174 22.39 204.604 22.66 204.184 23.2C203.764 23.74 203.544 24.44 203.524 25.3L208.174 24.28Z" fill="#F4A42B"></path>
    <path d="M230.77 34.48C228.77 34.48 226.95 34.01 225.31 33.07C223.69 32.11 222.4 30.81 221.44 29.17C220.5 27.51 220.03 25.68 220.03 23.68C220.03 21.64 220.49 19.8 221.41 18.16C222.33 16.52 223.59 15.24 225.19 14.32C226.79 13.38 228.59 12.91 230.59 12.91C231.67 12.91 232.73 13.04 233.77 13.3C234.81 13.56 235.7 13.93 236.44 14.41L235.63 19.06C234.19 18.52 232.89 18.25 231.73 18.25C230.13 18.25 228.9 18.72 228.04 19.66C227.18 20.58 226.75 21.91 226.75 23.65C226.75 25.35 227.2 26.68 228.1 27.64C229.02 28.58 230.29 29.05 231.91 29.05C232.53 29.05 233.11 28.99 233.65 28.87C234.19 28.75 234.85 28.53 235.63 28.21L236.47 32.95C234.73 33.97 232.83 34.48 230.77 34.48ZM245.071 34.24C243.771 34.24 242.551 33.9 241.411 33.22C240.291 32.52 239.391 31.58 238.711 30.4C238.031 29.2 237.691 27.87 237.691 26.41C237.691 24.97 238.031 23.67 238.711 22.51C239.391 21.33 240.301 20.41 241.441 19.75C242.581 19.09 243.791 18.76 245.071 18.76C246.111 18.76 247.071 19.05 247.951 19.63C248.851 20.21 249.531 21.08 249.991 22.24V18.76H256.291V34H249.991V31.21C248.991 33.23 247.351 34.24 245.071 34.24ZM247.021 29.5C247.821 29.5 248.501 29.22 249.061 28.66C249.641 28.08 249.951 27.4 249.991 26.62V26.38C249.951 25.58 249.631 24.9 249.031 24.34C248.451 23.78 247.781 23.5 247.021 23.5C246.181 23.5 245.461 23.8 244.861 24.4C244.281 24.98 243.991 25.68 243.991 26.5C243.991 27.34 244.291 28.05 244.891 28.63C245.491 29.21 246.201 29.5 247.021 29.5ZM264.52 34.24C262.42 34.24 260.58 33.93 259 33.31L259.69 29.74C261.13 30.26 262.53 30.52 263.89 30.52C264.89 30.52 265.39 30.24 265.39 29.68C265.39 29.4 265.24 29.17 264.94 28.99C264.66 28.81 264.12 28.65 263.32 28.51C261.66 28.19 260.46 27.65 259.72 26.89C259 26.13 258.64 25.05 258.64 23.65C258.72 22.07 259.35 20.86 260.53 20.02C261.71 19.18 263.32 18.76 265.36 18.76C266.4 18.76 267.29 18.83 268.03 18.97C268.79 19.09 269.48 19.3 270.1 19.6L269.47 23.17C268.89 22.95 268.25 22.78 267.55 22.66C266.87 22.54 266.3 22.48 265.84 22.48C265.16 22.48 264.69 22.55 264.43 22.69C264.17 22.83 264.04 23.02 264.04 23.26C264.04 23.7 264.54 24.01 265.54 24.19C267.36 24.51 268.72 25.07 269.62 25.87C270.52 26.67 270.97 27.76 270.97 29.14C270.97 30.72 270.41 31.97 269.29 32.89C268.19 33.79 266.6 34.24 264.52 34.24ZM278.468 34.24C276.788 34.24 275.478 33.7 274.538 32.62C273.598 31.54 273.128 30.07 273.128 28.21V18.97H279.488V27.94C279.488 28.4 279.608 28.76 279.848 29.02C280.108 29.26 280.438 29.38 280.838 29.38C281.238 29.38 281.648 29.26 282.068 29.02L282.398 33.19C281.958 33.53 281.378 33.79 280.658 33.97C279.958 34.15 279.228 34.24 278.468 34.24ZM276.308 16.72C275.368 16.72 274.568 16.43 273.908 15.85C273.268 15.25 272.948 14.52 272.948 13.66C272.948 12.8 273.288 12.08 273.968 11.5C274.648 10.92 275.428 10.63 276.308 10.63C277.228 10.63 278.018 10.93 278.678 11.53C279.358 12.13 279.698 12.84 279.698 13.66C279.698 14.54 279.358 15.27 278.678 15.85C277.998 16.43 277.208 16.72 276.308 16.72ZM284.145 19.18H290.175V22.24C291.335 19.92 293.175 18.76 295.695 18.76C297.615 18.76 299.115 19.45 300.195 20.83C301.295 22.19 301.845 24.08 301.845 26.5V34H295.545V25.87C295.545 25.01 295.355 24.35 294.975 23.89C294.615 23.43 294.105 23.2 293.445 23.2C292.965 23.2 292.495 23.36 292.035 23.68C291.575 23.98 291.195 24.42 290.895 25C290.615 25.58 290.475 26.24 290.475 26.98V34H284.145V19.18ZM312.63 34.24C310.95 34.24 309.45 33.91 308.13 33.25C306.83 32.59 305.81 31.68 305.07 30.52C304.35 29.34 303.99 27.99 303.99 26.47C303.99 24.95 304.36 23.61 305.1 22.45C305.84 21.27 306.86 20.36 308.16 19.72C309.48 19.08 310.98 18.76 312.66 18.76C314.36 18.76 315.86 19.09 317.16 19.75C318.48 20.39 319.5 21.29 320.22 22.45C320.94 23.61 321.3 24.95 321.3 26.47C321.3 28.01 320.93 29.37 320.19 30.55C319.47 31.71 318.45 32.62 317.13 33.28C315.83 33.92 314.33 34.24 312.63 34.24ZM312.69 29.74C313.51 29.74 314.18 29.44 314.7 28.84C315.24 28.22 315.51 27.43 315.51 26.47C315.51 25.51 315.24 24.73 314.7 24.13C314.18 23.51 313.51 23.2 312.69 23.2C311.87 23.2 311.19 23.51 310.65 24.13C310.13 24.73 309.87 25.51 309.87 26.47C309.87 27.43 310.13 28.22 310.65 28.84C311.19 29.44 311.87 29.74 312.69 29.74Z" fill="#090B34"></path>
    <path d="M36.6667 18.6667H49.3334L67 44.6667H54L36.6667 18.6667Z" fill="#F4A42B"></path>
    <path d="M21 18H32.8132L50.6667 44.6667H37.6667L21 18Z" fill="#090B34"></path>
    <path d="M13.3333 28H24L34.3333 44.6667H23L13.3333 28Z" fill="#090B34"></path>
    <path d="M7.66669 36.6667H15.3334L19.6667 44.6667H11.3334L7.66669 36.6667Z" fill="#090B34"></path>
    <path fill-rule="evenodd" clip-rule="evenodd" d="M42.8498 28H51.6667C59.3987 28 65.6667 21.732 65.6667 14C65.6667 6.26801 59.3987 0 51.6667 0H24.1174L30.8075 10H51.6667C53.8758 10 55.6667 11.7909 55.6667 14C55.6667 16.2091 53.8758 18 51.6667 18H36.1596L42.8498 28Z" fill="#F4A42B"></path>
    <path d="M0 0H33V10H6.66667L0 0Z" fill="#F4A42B"></path>
  </symbol>
  <symbol fill="none" xmlns="http://www.w3.org/2000/svg" viewBox="0 0 67 45" id="logo-left">
    <path d="M36.6667 18.6667H49.3333L67 44.6667H54L36.6667 18.6667Z" fill="#F4A42B"></path>
    <path d="M21 18H32.8132L50.6667 44.6667H37.6667L21 18Z" fill="currentColor"></path>
    <path d="M13.3333 28H24L34.3333 44.6667H23L13.3333 28Z" fill="currentColor"></path>
    <path d="M7.66667 36.6667H15.3333L19.6667 44.6667H11.3333L7.66667 36.6667Z" fill="currentColor"></path>
    <path fill-rule="evenodd" clip-rule="evenodd" d="M42.8497 28H51.6666C59.3986 28 65.6666 21.732 65.6666 14C65.6666 6.26801 59.3986 0 51.6666 0H24.1173L30.8075 10H51.6666C53.8758 10 55.6666 11.7909 55.6666 14C55.6666 16.2091 53.8758 18 51.6666 18H36.1596L42.8497 28Z" fill="#F4A42B"></path>
    <path d="M0 0H33V10H6.66667L0 0Z" fill="#F4A42B"></path>
  </symbol>
  <symbol fill="none" xmlns="http://www.w3.org/2000/svg" viewBox="0 0 235 30" id="logo-right">
    <path d="M5.16 7.92H0.87V3.36H16.44V7.92H12.15V24H5.16V7.92ZM24.9759 24.24C23.2959 24.24 21.7959 23.91 20.4759 23.25C19.1759 22.59 18.1559 21.68 17.4159 20.52C16.6959 19.34 16.3359 17.99 16.3359 16.47C16.3359 14.95 16.7059 13.61 17.4459 12.45C18.1859 11.27 19.2059 10.36 20.5059 9.72C21.8259 9.08 23.3259 8.76 25.0059 8.76C26.7059 8.76 28.2059 9.09 29.5059 9.75C30.8259 10.39 31.8459 11.29 32.5659 12.45C33.2859 13.61 33.6459 14.95 33.6459 16.47C33.6459 18.01 33.2759 19.37 32.5359 20.55C31.8159 21.71 30.7959 22.62 29.4759 23.28C28.1759 23.92 26.6759 24.24 24.9759 24.24ZM25.0359 19.74C25.8559 19.74 26.5259 19.44 27.0459 18.84C27.5859 18.22 27.8559 17.43 27.8559 16.47C27.8559 15.51 27.5859 14.73 27.0459 14.13C26.5259 13.51 25.8559 13.2 25.0359 13.2C24.2159 13.2 23.5359 13.51 22.9959 14.13C22.4759 14.73 22.2159 15.51 22.2159 16.47C22.2159 17.43 22.4759 18.22 22.9959 18.84C23.5359 19.44 24.2159 19.74 25.0359 19.74ZM35.8945 9.18H42.2245V11.79C43.1845 9.77 44.8145 8.76 47.1145 8.76C48.4545 8.76 49.6845 9.1 50.8045 9.78C51.9445 10.44 52.8345 11.36 53.4745 12.54C54.1345 13.72 54.4645 15.04 54.4645 16.5C54.4645 17.96 54.1245 19.28 53.4445 20.46C52.7845 21.64 51.8845 22.57 50.7445 23.25C49.6245 23.91 48.4245 24.24 47.1445 24.24C44.8645 24.24 43.2245 23.23 42.2245 21.21V27.9L35.8945 29.1V9.18ZM45.2245 19.5C46.0445 19.5 46.7445 19.2 47.3245 18.6C47.9045 18 48.1945 17.3 48.1945 16.5C48.1945 15.66 47.8945 14.95 47.2945 14.37C46.7145 13.79 46.0245 13.5 45.2245 13.5C44.4045 13.5 43.7045 13.79 43.1245 14.37C42.5445 14.93 42.2545 15.6 42.2545 16.38V16.5C42.2545 17.34 42.5445 18.05 43.1245 18.63C43.7245 19.21 44.4245 19.5 45.2245 19.5ZM72.8339 24.48C69.0739 24.48 66.7739 22.74 65.9339 19.26L65.1839 16.17H63.7739V24H57.2039V3.36H66.2939C68.0139 3.36 69.5239 3.62 70.8239 4.14C72.1439 4.64 73.1639 5.35 73.8839 6.27C74.6039 7.19 74.9639 8.25 74.9639 9.45C74.9639 10.79 74.6339 11.92 73.9739 12.84C73.3339 13.74 72.3339 14.48 70.9739 15.06C71.1139 15.82 71.2739 16.51 71.4539 17.13C71.6939 17.89 72.0239 18.42 72.4439 18.72C72.8639 19.02 73.4739 19.17 74.2739 19.17C74.5539 19.17 74.9939 19.13 75.5939 19.05V23.94C74.6539 24.3 73.7339 24.48 72.8339 24.48ZM64.9139 11.97C66.3939 11.97 67.4339 11.81 68.0339 11.49C68.6539 11.15 68.9639 10.58 68.9639 9.78C68.9639 9.1 68.7139 8.61 68.2139 8.31C67.7139 7.99 66.9239 7.83 65.8439 7.83H63.7739V11.97H64.9139ZM84.3312 24.24C83.0312 24.24 81.8112 23.9 80.6712 23.22C79.5512 22.52 78.6512 21.58 77.9712 20.4C77.2912 19.2 76.9512 17.87 76.9512 16.41C76.9512 14.97 77.2912 13.67 77.9712 12.51C78.6512 11.33 79.5612 10.41 80.7012 9.75C81.8412 9.09 83.0512 8.76 84.3312 8.76C85.3712 8.76 86.3312 9.05 87.2112 9.63C88.1112 10.21 88.7912 11.08 89.2512 12.24V8.76H95.5512V24H89.2512V21.21C88.2512 23.23 86.6112 24.24 84.3312 24.24ZM86.2812 19.5C87.0812 19.5 87.7612 19.22 88.3212 18.66C88.9012 18.08 89.2112 17.4 89.2512 16.62V16.38C89.2112 15.58 88.8912 14.9 88.2912 14.34C87.7112 13.78 87.0412 13.5 86.2812 13.5C85.4412 13.5 84.7212 13.8 84.1212 14.4C83.5412 14.98 83.2512 15.68 83.2512 16.5C83.2512 17.34 83.5512 18.05 84.1512 18.63C84.7512 19.21 85.4612 19.5 86.2812 19.5ZM105.16 24.24C103.4 24.24 102.03 23.74 101.05 22.74C100.07 21.72 99.5798 20.32 99.5798 18.54V12.69H97.6598V8.97H100.03L102.82 3.3H105.85V8.97H109.33V12.69H105.85V17.79C105.85 18.29 106.01 18.68 106.33 18.96C106.65 19.24 107.1 19.38 107.68 19.38C108.22 19.38 108.71 19.26 109.15 19.02L109.39 23.22C108.89 23.52 108.24 23.77 107.44 23.97C106.66 24.15 105.9 24.24 105.16 24.24ZM119.104 24.24C117.444 24.24 115.964 23.91 114.664 23.25C113.384 22.57 112.384 21.65 111.664 20.49C110.944 19.31 110.584 17.98 110.584 16.5C110.584 14.98 110.954 13.63 111.694 12.45C112.434 11.27 113.434 10.36 114.694 9.72C115.954 9.08 117.354 8.76 118.894 8.76C120.374 8.76 121.634 9.09 122.674 9.75C123.734 10.39 124.524 11.27 125.044 12.39C125.564 13.49 125.824 14.73 125.824 16.11C125.824 16.47 125.804 16.73 125.764 16.89L116.764 18.06C117.004 18.76 117.394 19.27 117.934 19.59C118.474 19.89 119.184 20.04 120.064 20.04C121.424 20.04 122.894 19.69 124.474 18.99L125.224 23.01C123.364 23.83 121.324 24.24 119.104 24.24ZM121.174 14.28C120.854 13.02 120.094 12.39 118.894 12.39C118.174 12.39 117.604 12.66 117.184 13.2C116.764 13.74 116.544 14.44 116.524 15.3L121.174 14.28Z" fill="#F4A42B"></path>
    <path d="M143.77 24.48C141.77 24.48 139.95 24.01 138.31 23.07C136.69 22.11 135.4 20.81 134.44 19.17C133.5 17.51 133.03 15.68 133.03 13.68C133.03 11.64 133.49 9.8 134.41 8.16C135.33 6.52 136.59 5.24 138.19 4.32C139.79 3.38 141.59 2.91 143.59 2.91C144.67 2.91 145.73 3.04 146.77 3.3C147.81 3.56 148.7 3.93 149.44 4.41L148.63 9.06C147.19 8.52 145.89 8.25 144.73 8.25C143.13 8.25 141.9 8.72 141.04 9.66C140.18 10.58 139.75 11.91 139.75 13.65C139.75 15.35 140.2 16.68 141.1 17.64C142.02 18.58 143.29 19.05 144.91 19.05C145.53 19.05 146.11 18.99 146.65 18.87C147.19 18.75 147.85 18.53 148.63 18.21L149.47 22.95C147.73 23.97 145.83 24.48 143.77 24.48ZM158.071 24.24C156.771 24.24 155.551 23.9 154.411 23.22C153.291 22.52 152.391 21.58 151.711 20.4C151.031 19.2 150.691 17.87 150.691 16.41C150.691 14.97 151.031 13.67 151.711 12.51C152.391 11.33 153.301 10.41 154.441 9.75C155.581 9.09 156.791 8.76 158.071 8.76C159.111 8.76 160.071 9.05 160.951 9.63C161.851 10.21 162.531 11.08 162.991 12.24V8.76H169.291V24H162.991V21.21C161.991 23.23 160.351 24.24 158.071 24.24ZM160.021 19.5C160.821 19.5 161.501 19.22 162.061 18.66C162.641 18.08 162.951 17.4 162.991 16.62V16.38C162.951 15.58 162.631 14.9 162.031 14.34C161.451 13.78 160.781 13.5 160.021 13.5C159.181 13.5 158.461 13.8 157.861 14.4C157.281 14.98 156.991 15.68 156.991 16.5C156.991 17.34 157.291 18.05 157.891 18.63C158.491 19.21 159.201 19.5 160.021 19.5ZM177.52 24.24C175.42 24.24 173.58 23.93 172 23.31L172.69 19.74C174.13 20.26 175.53 20.52 176.89 20.52C177.89 20.52 178.39 20.24 178.39 19.68C178.39 19.4 178.24 19.17 177.94 18.99C177.66 18.81 177.12 18.65 176.32 18.51C174.66 18.19 173.46 17.65 172.72 16.89C172 16.13 171.64 15.05 171.64 13.65C171.72 12.07 172.35 10.86 173.53 10.02C174.71 9.18 176.32 8.76 178.36 8.76C179.4 8.76 180.29 8.83 181.03 8.97C181.79 9.09 182.48 9.3 183.1 9.6L182.47 13.17C181.89 12.95 181.25 12.78 180.55 12.66C179.87 12.54 179.3 12.48 178.84 12.48C178.16 12.48 177.69 12.55 177.43 12.69C177.17 12.83 177.04 13.02 177.04 13.26C177.04 13.7 177.54 14.01 178.54 14.19C180.36 14.51 181.72 15.07 182.62 15.87C183.52 16.67 183.97 17.76 183.97 19.14C183.97 20.72 183.41 21.97 182.29 22.89C181.19 23.79 179.6 24.24 177.52 24.24ZM191.468 24.24C189.788 24.24 188.478 23.7 187.538 22.62C186.598 21.54 186.128 20.07 186.128 18.21V8.97H192.488V17.94C192.488 18.4 192.608 18.76 192.848 19.02C193.108 19.26 193.438 19.38 193.838 19.38C194.238 19.38 194.648 19.26 195.068 19.02L195.398 23.19C194.958 23.53 194.378 23.79 193.658 23.97C192.958 24.15 192.228 24.24 191.468 24.24ZM189.308 6.72C188.368 6.72 187.568 6.43 186.908 5.85C186.268 5.25 185.948 4.52 185.948 3.66C185.948 2.8 186.288 2.08 186.968 1.5C187.648 0.919999 188.428 0.629999 189.308 0.629999C190.228 0.629999 191.018 0.929999 191.678 1.53C192.358 2.13 192.698 2.84 192.698 3.66C192.698 4.54 192.358 5.27 191.678 5.85C190.998 6.43 190.208 6.72 189.308 6.72ZM197.145 9.18H203.175V12.24C204.335 9.92 206.175 8.76 208.695 8.76C210.615 8.76 212.115 9.45 213.195 10.83C214.295 12.19 214.845 14.08 214.845 16.5V24H208.545V15.87C208.545 15.01 208.355 14.35 207.975 13.89C207.615 13.43 207.105 13.2 206.445 13.2C205.965 13.2 205.495 13.36 205.035 13.68C204.575 13.98 204.195 14.42 203.895 15C203.615 15.58 203.475 16.24 203.475 16.98V24H197.145V9.18ZM225.63 24.24C223.95 24.24 222.45 23.91 221.13 23.25C219.83 22.59 218.81 21.68 218.07 20.52C217.35 19.34 216.99 17.99 216.99 16.47C216.99 14.95 217.36 13.61 218.1 12.45C218.84 11.27 219.86 10.36 221.16 9.72C222.48 9.08 223.98 8.76 225.66 8.76C227.36 8.76 228.86 9.09 230.16 9.75C231.48 10.39 232.5 11.29 233.22 12.45C233.94 13.61 234.3 14.95 234.3 16.47C234.3 18.01 233.93 19.37 233.19 20.55C232.47 21.71 231.45 22.62 230.13 23.28C228.83 23.92 227.33 24.24 225.63 24.24ZM225.69 19.74C226.51 19.74 227.18 19.44 227.7 18.84C228.24 18.22 228.51 17.43 228.51 16.47C228.51 15.51 228.24 14.73 227.7 14.13C227.18 13.51 226.51 13.2 225.69 13.2C224.87 13.2 224.19 13.51 223.65 14.13C223.13 14.73 222.87 15.51 222.87 16.47C222.87 17.43 223.13 18.22 223.65 18.84C224.19 19.44 224.87 19.74 225.69 19.74Z" fill="currentColor"></path>
  </symbol>
  <symbol fill="none" xmlns="http://www.w3.org/2000/svg" viewBox="0 0 38 27" id="mastercard">
    <path d="M0 3.375C0 1.51104 1.41777 0 3.16667 0H34.8333C36.5822 0 38 1.51104 38 3.375V23.625C38 25.489 36.5822 27 34.8333 27H3.16667C1.41776 27 0 25.489 0 23.625V3.375Z" fill="#FDEACE"></path>
    <path d="M22.9897 5.50749L14.7875 5.5423L15.0103 21.4926L23.2125 21.4578L22.9897 5.50749Z" fill="#FF5F00"></path>
    <path d="M15.3342 13.5448C15.2888 10.3011 16.6603 7.4181 18.8043 5.5473C17.1904 4.20015 15.1658 3.39068 12.9696 3.39998C7.76665 3.422 3.6209 7.98103 3.69958 13.5941C3.77826 19.2071 8.05131 23.7305 13.2542 23.7085C15.4504 23.6992 17.4521 22.8727 19.028 21.512C16.8323 19.6878 15.3797 16.7885 15.3342 13.5448Z" fill="#EB001B"></path>
    <path d="M34.3004 13.406C34.3791 19.019 30.2334 23.5781 25.0305 23.6001C22.8342 23.6094 20.8096 22.7999 19.1957 21.4528C21.3659 19.5819 22.7112 16.699 22.6658 13.4553C22.6203 10.2115 21.1681 7.34047 18.972 5.48805C20.5479 4.1274 22.5496 3.30089 24.7458 3.29159C29.9487 3.26957 34.2222 7.82117 34.3004 13.406Z" fill="#F79E1B"></path>
  </symbol>
  <symbol fill="none" xmlns="http://www.w3.org/2000/svg" viewBox="0 0 39 27" id="qiwi">
    <path d="M0 3.375C0 1.51104 1.45507 0 3.25 0H35.75C37.5449 0 39 1.51104 39 3.375V23.625C39 25.489 37.5449 27 35.75 27H3.25C1.45507 27 0 25.489 0 23.625V3.375Z" fill="#FCE6CF"></path>
    <path d="M24.9523 16.1077C25.2762 16.2519 25.415 16.7323 25.415 16.9726C25.4612 17.357 25.3687 17.5492 25.2299 17.5492C25.0911 17.5492 24.906 17.405 24.7209 17.0687C24.5359 16.7323 24.4433 16.396 24.5359 16.2038C24.6747 16.1077 24.8135 16.0597 24.9523 16.1077Z" fill="#F28A1A"></path>
    <path d="M23.0554 17.5972C23.2404 17.5972 23.4718 17.6933 23.7031 17.8855C24.0733 18.2219 24.2121 18.6062 24.027 18.8945C23.9345 19.0387 23.7031 19.1348 23.518 19.1348C23.2867 19.1348 23.0554 19.0387 22.9166 18.8945C22.5464 18.5582 22.4539 18.0777 22.6852 17.7894C22.7315 17.6933 22.8703 17.5972 23.0554 17.5972Z" fill="#F28A1A"></path>
    <path d="M18.6598 21.393C13.8479 21.393 9.96136 17.357 9.96136 12.408C9.96136 7.45908 13.8479 3.375 18.6598 3.375C23.4718 3.375 27.3583 7.41103 27.3583 12.408C27.3583 14.0897 26.8956 15.6753 26.1553 17.0206C26.1091 17.0687 26.0628 17.0687 26.0628 16.9726C25.7389 14.7624 24.4434 13.5612 22.5927 13.1768C22.4076 13.1287 22.4076 13.0326 22.6389 13.0326C23.2404 12.9846 24.027 12.9846 24.4897 13.0807C24.5359 12.8405 24.5359 12.6002 24.5359 12.408C24.5359 9.14076 21.9449 6.45007 18.7986 6.45007C15.6524 6.45007 13.0614 9.14076 13.0614 12.408C13.0614 15.6753 15.6524 18.366 18.7986 18.366H19.0763C18.9837 17.8374 18.9374 17.3089 18.9837 16.7323C18.9837 16.348 19.0763 16.2999 19.2151 16.5882C20.0016 18.0296 21.1583 19.2789 23.3792 19.8074C25.1837 20.2398 26.9882 20.7203 28.9777 23.2669C29.1628 23.5071 28.8852 23.7474 28.7001 23.5552C26.7105 21.7293 24.9061 21.1047 23.2404 21.1047C21.1583 21.1528 19.9091 21.393 18.6598 21.393Z" fill="#F28A1A"></path>
  </symbol>
  <symbol fill="none" xmlns="http://www.w3.org/2000/svg" viewBox="0 0 32 30" id="star">
    <g clip-path="url(#clip0_20:291)">
      <path d="M29.4109 11.8191C29.9884 11.2896 30.1922 10.5124 29.9431 9.79096C29.6939 9.06949 29.0434 8.55358 28.2454 8.44453L21.2677 7.49069C21.1308 7.47199 21.0124 7.39108 20.9511 7.27424L17.8306 1.3261C17.4738 0.645822 16.7512 0.223244 15.9448 0.223244C15.1384 0.223244 14.4158 0.645822 14.059 1.3261L10.9385 7.2743C10.8771 7.39108 10.7588 7.47199 10.6218 7.49074L3.64423 8.44453C2.84625 8.55358 2.19582 9.06949 1.94656 9.79096C1.6973 10.5124 1.90122 11.2896 2.47871 11.8191L7.52775 16.4491C7.62685 16.54 7.67213 16.671 7.64871 16.7994L6.45678 23.337C6.3205 24.0847 6.64102 24.8261 7.29338 25.272C7.94574 25.718 8.79454 25.7756 9.50819 25.4227L15.7491 22.3361C15.8717 22.2754 16.018 22.2754 16.1406 22.3361L22.3816 25.4227C22.692 25.5762 23.0279 25.6521 23.3622 25.6521C23.7963 25.6521 24.2277 25.5241 24.5962 25.272C25.2486 24.826 25.5691 24.0846 25.4328 23.337L24.2409 16.7993C24.2175 16.6709 24.2627 16.54 24.3618 16.449L29.4109 11.8191ZM22.5828 17.067L23.7747 23.6047C23.8146 23.8235 23.671 23.9483 23.6074 23.9917C23.5438 24.035 23.3733 24.1251 23.1645 24.0217L16.9235 20.9351C16.6171 20.7836 16.2811 20.7078 15.9449 20.7078C15.6088 20.7078 15.2726 20.7836 14.9663 20.935L8.72541 24.0216C8.51651 24.1249 8.34604 24.035 8.28244 23.9916C8.21885 23.9481 8.07523 23.8234 8.11515 23.6046L9.30708 17.067C9.42411 16.4251 9.19808 15.7705 8.70224 15.3158L3.6532 10.6858C3.48422 10.5308 3.52247 10.3505 3.54682 10.2802C3.57105 10.2098 3.65283 10.0427 3.88633 10.0109L10.8638 9.05701C11.5489 8.96338 12.1409 8.55885 12.4473 7.97473L15.5678 2.02652C15.6722 1.82748 15.8663 1.80598 15.945 1.80598C16.0235 1.80598 16.2176 1.82742 16.3221 2.02652V2.02658L19.4426 7.97479C19.749 8.55891 20.3409 8.96344 21.026 9.05707L28.0036 10.0109C28.2371 10.0428 28.3188 10.2098 28.3431 10.2802C28.3674 10.3506 28.4057 10.5309 28.2366 10.6859L23.1876 15.3159C22.6918 15.7705 22.4658 16.4251 22.5828 17.067Z" fill="url(#paint0_linear_20:291)"></path>
      <path d="M25.772 1.32567C25.396 1.0688 24.87 1.1472 24.597 1.50075L23.704 2.65692C23.431 3.01048 23.5143 3.50542 23.8901 3.76229C24.0396 3.86431 24.2125 3.91347 24.3839 3.91347C24.6441 3.91347 24.9006 3.80032 25.0651 3.58727L25.9581 2.4311C26.2311 2.07749 26.1479 1.58255 25.772 1.32567Z" fill="url(#paint1_linear_20:291)"></path>
      <path d="M8.18161 2.65225L7.28865 1.49608C7.01566 1.14264 6.48961 1.06425 6.11366 1.321C5.73784 1.57788 5.6545 2.07282 5.92756 2.42637L6.82052 3.58255C6.98514 3.79577 7.24162 3.90885 7.50185 3.90885C7.67331 3.90885 7.84634 3.85969 7.99557 3.75762C8.37139 3.50081 8.45473 3.00587 8.18161 2.65225Z" fill="url(#paint2_linear_20:291)"></path>
      <path d="M3.08647 17.9782C2.94291 17.5626 2.46837 17.3351 2.02647 17.4702L0.581667 17.9118C0.139764 18.0469 -0.10196 18.4934 0.0416045 18.9091C0.157079 19.2436 0.486872 19.4561 0.841453 19.4561C0.927592 19.4561 1.01523 19.4435 1.10161 19.4171L2.54641 18.9754C2.98825 18.8404 3.23004 18.394 3.08647 17.9782Z" fill="url(#paint3_linear_20:291)"></path>
      <path d="M15.945 26.7648C15.4804 26.7648 15.1038 27.1191 15.1038 27.5562V28.9854C15.1038 29.4224 15.4804 29.7768 15.945 29.7768C16.4095 29.7768 16.7862 29.4224 16.7862 28.9854V27.5562C16.7862 27.1191 16.4096 26.7648 15.945 26.7648Z" fill="url(#paint4_linear_20:291)"></path>
      <path d="M31.3078 17.913L29.863 17.4713C29.4213 17.3364 28.9466 17.5637 28.803 17.9794C28.6595 18.3952 28.9012 18.8416 29.3431 18.9766L30.7879 19.4183C30.8743 19.4447 30.9619 19.4572 31.048 19.4572C31.4026 19.4572 31.7324 19.2446 31.8479 18.9101C31.9915 18.4945 31.7497 18.048 31.3078 17.913Z" fill="url(#paint5_linear_20:291)"></path>
    </g>
    <defs>
      <linearGradient id="paint0_linear_20:291" x1="15.9448" y1="0.223244" x2="15.9448" y2="25.6521" gradientUnits="userSpaceOnUse">
        <stop stop-color="#D9C82C"></stop>
        <stop offset="1" stop-color="#F4A42B"></stop>
      </linearGradient>
      <linearGradient id="paint1_linear_20:291" x1="24.8311" y1="1.1745" x2="24.8311" y2="3.91347" gradientUnits="userSpaceOnUse">
        <stop stop-color="#D9C82C"></stop>
        <stop offset="1" stop-color="#F4A42B"></stop>
      </linearGradient>
      <linearGradient id="paint2_linear_20:291" x1="7.05461" y1="1.16991" x2="7.05461" y2="3.90885" gradientUnits="userSpaceOnUse">
        <stop stop-color="#D9C82C"></stop>
        <stop offset="1" stop-color="#F4A42B"></stop>
      </linearGradient>
      <linearGradient id="paint3_linear_20:291" x1="1.56404" y1="17.4312" x2="1.56404" y2="19.4561" gradientUnits="userSpaceOnUse">
        <stop stop-color="#D9C82C"></stop>
        <stop offset="1" stop-color="#F4A42B"></stop>
      </linearGradient>
      <linearGradient id="paint4_linear_20:291" x1="15.945" y1="26.7648" x2="15.945" y2="29.7768" gradientUnits="userSpaceOnUse">
        <stop stop-color="#D9C82C"></stop>
        <stop offset="1" stop-color="#F4A42B"></stop>
      </linearGradient>
      <linearGradient id="paint5_linear_20:291" x1="30.3255" y1="17.4324" x2="30.3255" y2="19.4572" gradientUnits="userSpaceOnUse">
        <stop stop-color="#D9C82C"></stop>
        <stop offset="1" stop-color="#F4A42B"></stop>
      </linearGradient>
      <clipPath id="clip0_20:291">
        <rect width="31.8893" height="30" fill="white"></rect>
      </clipPath>
    </defs>
  </symbol>
  <symbol fill="none" xmlns="http://www.w3.org/2000/svg" viewBox="0 0 38 38" id="vertical">
    <path d="M33.5833 0.25H4.41667C2.125 0.25 0.25 2.125 0.25 4.41667V33.5833C0.25 35.875 2.125 37.75 4.41667 37.75H33.5833C35.875 37.75 37.75 35.875 37.75 33.5833V4.41667C37.75 2.125 35.875 0.25 33.5833 0.25ZM33.5833 4.41667V10.6667H4.41667V4.41667H33.5833ZM33.5833 14.8333V23.1667H4.41667V14.8333H33.5833ZM4.41667 33.5833V27.3333H33.5833V33.5833H4.41667Z" fill="currentColor"></path>
  </symbol>
  <symbol fill="none" xmlns="http://www.w3.org/2000/svg" viewBox="0 0 39 27" id="visa">
    <path d="M0 3.375C0 1.51104 1.45507 0 3.25 0H35.75C37.5449 0 39 1.51104 39 3.375V23.625C39 25.489 37.5449 27 35.75 27H3.25C1.45507 27 0 25.489 0 23.625V3.375Z" fill="#D8E3F3"></path>
    <path d="M33.5643 8.46704H31.5212C30.9035 8.46704 30.4284 8.66441 30.1433 9.30586L26.2471 18.5328H29.0029C29.0029 18.5328 29.4781 17.2993 29.5731 17.0032C29.8582 17.0032 32.5665 17.0032 32.9466 17.0032C33.0417 17.3486 33.2792 18.4835 33.2792 18.4835H35.75L33.5643 8.46704ZM30.3333 14.9309C30.5709 14.3388 31.3786 12.1184 31.3786 12.1184C31.3786 12.1677 31.6162 11.5263 31.7113 11.1809L31.9013 12.069C31.9013 12.069 32.424 14.4868 32.519 14.9802H30.3333V14.9309Z" fill="#3362AB"></path>
    <path d="M26.4371 15.2269C26.4371 17.2993 24.6316 18.6809 21.8282 18.6809C20.6403 18.6809 19.5 18.4342 18.8823 18.1381L19.2624 15.8684L19.595 16.0164C20.4503 16.4111 21.0205 16.5592 22.0658 16.5592C22.826 16.5592 23.6338 16.2631 23.6338 15.5723C23.6338 15.1282 23.3012 14.8322 22.2558 14.3388C21.258 13.8453 19.9276 13.0559 19.9276 11.625C19.9276 9.65127 21.7807 8.31903 24.394 8.31903C25.3918 8.31903 26.2471 8.5164 26.7697 8.76311L26.3896 10.9342L26.1995 10.7368C25.7244 10.5394 25.1067 10.3421 24.2039 10.3421C23.2061 10.3914 22.731 10.8355 22.731 11.2302C22.731 11.6743 23.3012 12.0197 24.2039 12.4638C25.7244 13.2039 26.4371 14.0427 26.4371 15.2269Z" fill="#3362AB"></path>
    <path d="M3.25 8.56578L3.29751 8.36841H7.38377C7.95395 8.36841 8.38158 8.56578 8.52412 9.20722L9.4269 13.648C8.52412 11.2796 6.43348 9.35525 3.25 8.56578Z" fill="#F9B50B"></path>
    <path d="M15.1762 8.46707L11.0424 18.4835H8.23904L5.86331 10.0954C7.57384 11.2302 8.99928 13.0065 9.52194 14.2401L9.80703 15.2763L12.3728 8.41772H15.1762V8.46707Z" fill="#3362AB"></path>
    <path d="M16.269 8.41772H18.8823L17.2193 18.4835H14.606L16.269 8.41772Z" fill="#3362AB"></path>
  </symbol>
  <symbol fill="none" xmlns="http://www.w3.org/2000/svg" viewBox="0 0 39 27" id="web-money">
    <path d="M0 3.375C0 1.51104 1.45507 0 3.25 0H35.75C37.5449 0 39 1.51104 39 3.375V23.625C39 25.489 37.5449 27 35.75 27H3.25C1.45507 27 0 25.489 0 23.625V3.375Z" fill="#D1EAFA"></path>
    <path d="M22.1377 13.1087L20.0181 10.712L17.663 12.8641L19.7826 15.3098L22.1377 13.1087Z" fill="#137ABE"></path>
    <path d="M15.9674 8.75543L18.0869 11.1522L20.442 9L18.3224 6.60326L15.9674 8.75543Z" fill="#137ABE"></path>
    <path d="M23.7862 17.2663L21.6666 14.8696L19.3116 17.0707L21.4311 19.4674L23.7862 17.2663Z" fill="#137ABE"></path>
    <path d="M21.3369 21.2772L17.4746 16.8261L18.5579 15.8478L15.8261 12.7174L16.9094 11.7391L14.1775 8.6087L18.4637 4.64674L19.8297 6.16304L22.1848 4.05978L23.5507 5.52717L24.4456 4.69565C24.2572 4.59783 24.0217 4.45109 23.8333 4.35326C22.4674 3.7663 21.0072 3.375 19.4529 3.375C14.0362 3.375 9.60867 7.92391 9.60867 13.5C9.60867 19.0761 14.0362 23.625 19.5 23.625C21.2898 23.625 22.9384 23.1359 24.3514 22.3043C24.8224 22.0109 25.2463 21.7174 25.6703 21.4239L23.692 19.125L21.3369 21.2772Z" fill="#137ABE"></path>
    <path d="M20.3007 7.58152L21.855 9.3913L23.6449 7.77717L22.0435 5.96739L20.3007 7.58152Z" fill="#137ABE"></path>
    <path d="M25.2464 11.3967L23.6449 9.58696L21.9021 11.25L23.5036 13.0109L25.2464 11.3967Z" fill="#137ABE"></path>
    <path d="M26.7536 15.212L25.1521 13.4022L23.4094 15.0163L25.0108 16.875L26.7536 15.212Z" fill="#137ABE"></path>
    <path d="M26.8478 9.24457L25.6703 10.3207L26.7536 11.5435L27.884 10.4674L26.8478 9.24457Z" fill="#137ABE"></path>
    <path d="M27.1775 13.8913L28.2137 15.1141L29.3913 14.038L28.3079 12.8152L27.1775 13.8913Z" fill="#137ABE"></path>
    <path d="M24.163 6.75L25.2464 7.97283L26.3768 6.89674L25.3406 5.67391L24.163 6.75Z" fill="#137ABE"></path>
    <path d="M24.9637 18.6848L26.5652 20.4946L28.3079 18.8804L26.7065 17.0707L24.9637 18.6848Z" fill="#137ABE"></path>
  </symbol>
</svg>