<svg width="32" height="30" viewBox="0 0 32 30" fill="none" xmlns="http://www.w3.org/2000/svg">
<g clip-path="url(#clip0_20:291)">
<path d="M29.4109 11.8191C29.9884 11.2896 30.1922 10.5124 29.9431 9.79096C29.6939 9.06949 29.0434 8.55358 28.2454 8.44453L21.2677 7.49069C21.1308 7.47199 21.0124 7.39108 20.9511 7.27424L17.8306 1.3261C17.4738 0.645822 16.7512 0.223244 15.9448 0.223244C15.1384 0.223244 14.4158 0.645822 14.059 1.3261L10.9385 7.2743C10.8771 7.39108 10.7588 7.47199 10.6218 7.49074L3.64423 8.44453C2.84625 8.55358 2.19582 9.06949 1.94656 9.79096C1.6973 10.5124 1.90122 11.2896 2.47871 11.8191L7.52775 16.4491C7.62685 16.54 7.67213 16.671 7.64871 16.7994L6.45678 23.337C6.3205 24.0847 6.64102 24.8261 7.29338 25.272C7.94574 25.718 8.79454 25.7756 9.50819 25.4227L15.7491 22.3361C15.8717 22.2754 16.018 22.2754 16.1406 22.3361L22.3816 25.4227C22.692 25.5762 23.0279 25.6521 23.3622 25.6521C23.7963 25.6521 24.2277 25.5241 24.5962 25.272C25.2486 24.826 25.5691 24.0846 25.4328 23.337L24.2409 16.7993C24.2175 16.6709 24.2627 16.54 24.3618 16.449L29.4109 11.8191ZM22.5828 17.067L23.7747 23.6047C23.8146 23.8235 23.671 23.9483 23.6074 23.9917C23.5438 24.035 23.3733 24.1251 23.1645 24.0217L16.9235 20.9351C16.6171 20.7836 16.2811 20.7078 15.9449 20.7078C15.6088 20.7078 15.2726 20.7836 14.9663 20.935L8.72541 24.0216C8.51651 24.1249 8.34604 24.035 8.28244 23.9916C8.21885 23.9481 8.07523 23.8234 8.11515 23.6046L9.30708 17.067C9.42411 16.4251 9.19808 15.7705 8.70224 15.3158L3.6532 10.6858C3.48422 10.5308 3.52247 10.3505 3.54682 10.2802C3.57105 10.2098 3.65283 10.0427 3.88633 10.0109L10.8638 9.05701C11.5489 8.96338 12.1409 8.55885 12.4473 7.97473L15.5678 2.02652C15.6722 1.82748 15.8663 1.80598 15.945 1.80598C16.0235 1.80598 16.2176 1.82742 16.3221 2.02652V2.02658L19.4426 7.97479C19.749 8.55891 20.3409 8.96344 21.026 9.05707L28.0036 10.0109C28.2371 10.0428 28.3188 10.2098 28.3431 10.2802C28.3674 10.3506 28.4057 10.5309 28.2366 10.6859L23.1876 15.3159C22.6918 15.7705 22.4658 16.4251 22.5828 17.067Z" fill="url(#paint0_linear_20:291)"/>
<path d="M25.772 1.32567C25.396 1.0688 24.87 1.1472 24.597 1.50075L23.704 2.65692C23.431 3.01048 23.5143 3.50542 23.8901 3.76229C24.0396 3.86431 24.2125 3.91347 24.3839 3.91347C24.6441 3.91347 24.9006 3.80032 25.0651 3.58727L25.9581 2.4311C26.2311 2.07749 26.1479 1.58255 25.772 1.32567Z" fill="url(#paint1_linear_20:291)"/>
<path d="M8.18161 2.65225L7.28865 1.49608C7.01566 1.14264 6.48961 1.06425 6.11366 1.321C5.73784 1.57788 5.6545 2.07282 5.92756 2.42637L6.82052 3.58255C6.98514 3.79577 7.24162 3.90885 7.50185 3.90885C7.67331 3.90885 7.84634 3.85969 7.99557 3.75762C8.37139 3.50081 8.45473 3.00587 8.18161 2.65225Z" fill="url(#paint2_linear_20:291)"/>
<path d="M3.08647 17.9782C2.94291 17.5626 2.46837 17.3351 2.02647 17.4702L0.581667 17.9118C0.139764 18.0469 -0.10196 18.4934 0.0416045 18.9091C0.157079 19.2436 0.486872 19.4561 0.841453 19.4561C0.927592 19.4561 1.01523 19.4435 1.10161 19.4171L2.54641 18.9754C2.98825 18.8404 3.23004 18.394 3.08647 17.9782Z" fill="url(#paint3_linear_20:291)"/>
<path d="M15.945 26.7648C15.4804 26.7648 15.1038 27.1191 15.1038 27.5562V28.9854C15.1038 29.4224 15.4804 29.7768 15.945 29.7768C16.4095 29.7768 16.7862 29.4224 16.7862 28.9854V27.5562C16.7862 27.1191 16.4096 26.7648 15.945 26.7648Z" fill="url(#paint4_linear_20:291)"/>
<path d="M31.3078 17.913L29.863 17.4713C29.4213 17.3364 28.9466 17.5637 28.803 17.9794C28.6595 18.3952 28.9012 18.8416 29.3431 18.9766L30.7879 19.4183C30.8743 19.4447 30.9619 19.4572 31.048 19.4572C31.4026 19.4572 31.7324 19.2446 31.8479 18.9101C31.9915 18.4945 31.7497 18.048 31.3078 17.913Z" fill="url(#paint5_linear_20:291)"/>
</g>
<defs>
<linearGradient id="paint0_linear_20:291" x1="15.9448" y1="0.223244" x2="15.9448" y2="25.6521" gradientUnits="userSpaceOnUse">
<stop stop-color="#D9C82C"/>
<stop offset="1" stop-color="#F4A42B"/>
</linearGradient>
<linearGradient id="paint1_linear_20:291" x1="24.8311" y1="1.1745" x2="24.8311" y2="3.91347" gradientUnits="userSpaceOnUse">
<stop stop-color="#D9C82C"/>
<stop offset="1" stop-color="#F4A42B"/>
</linearGradient>
<linearGradient id="paint2_linear_20:291" x1="7.05461" y1="1.16991" x2="7.05461" y2="3.90885" gradientUnits="userSpaceOnUse">
<stop stop-color="#D9C82C"/>
<stop offset="1" stop-color="#F4A42B"/>
</linearGradient>
<linearGradient id="paint3_linear_20:291" x1="1.56404" y1="17.4312" x2="1.56404" y2="19.4561" gradientUnits="userSpaceOnUse">
<stop stop-color="#D9C82C"/>
<stop offset="1" stop-color="#F4A42B"/>
</linearGradient>
<linearGradient id="paint4_linear_20:291" x1="15.945" y1="26.7648" x2="15.945" y2="29.7768" gradientUnits="userSpaceOnUse">
<stop stop-color="#D9C82C"/>
<stop offset="1" stop-color="#F4A42B"/>
</linearGradient>
<linearGradient id="paint5_linear_20:291" x1="30.3255" y1="17.4324" x2="30.3255" y2="19.4572" gradientUnits="userSpaceOnUse">
<stop stop-color="#D9C82C"/>
<stop offset="1" stop-color="#F4A42B"/>
</linearGradient>
<clipPath id="clip0_20:291">
<rect width="31.8893" height="30" fill="white"/>
</clipPath>
</defs>
</svg>
