<svg width="39" height="27" viewBox="0 0 39 27" fill="none" xmlns="http://www.w3.org/2000/svg">
<path d="M0 3.375C0 1.51104 1.45507 0 3.25 0H35.75C37.5449 0 39 1.51104 39 3.375V23.625C39 25.489 37.5449 27 35.75 27H3.25C1.45507 27 0 25.489 0 23.625V3.375Z" fill="#D8E3F3"/>
<path d="M33.5643 8.46704H31.5212C30.9035 8.46704 30.4284 8.66441 30.1433 9.30586L26.2471 18.5328H29.0029C29.0029 18.5328 29.4781 17.2993 29.5731 17.0032C29.8582 17.0032 32.5665 17.0032 32.9466 17.0032C33.0417 17.3486 33.2792 18.4835 33.2792 18.4835H35.75L33.5643 8.46704ZM30.3333 14.9309C30.5709 14.3388 31.3786 12.1184 31.3786 12.1184C31.3786 12.1677 31.6162 11.5263 31.7113 11.1809L31.9013 12.069C31.9013 12.069 32.424 14.4868 32.519 14.9802H30.3333V14.9309Z" fill="#3362AB"/>
<path d="M26.4371 15.2269C26.4371 17.2993 24.6316 18.6809 21.8282 18.6809C20.6403 18.6809 19.5 18.4342 18.8823 18.1381L19.2624 15.8684L19.595 16.0164C20.4503 16.4111 21.0205 16.5592 22.0658 16.5592C22.826 16.5592 23.6338 16.2631 23.6338 15.5723C23.6338 15.1282 23.3012 14.8322 22.2558 14.3388C21.258 13.8453 19.9276 13.0559 19.9276 11.625C19.9276 9.65127 21.7807 8.31903 24.394 8.31903C25.3918 8.31903 26.2471 8.5164 26.7697 8.76311L26.3896 10.9342L26.1995 10.7368C25.7244 10.5394 25.1067 10.3421 24.2039 10.3421C23.2061 10.3914 22.731 10.8355 22.731 11.2302C22.731 11.6743 23.3012 12.0197 24.2039 12.4638C25.7244 13.2039 26.4371 14.0427 26.4371 15.2269Z" fill="#3362AB"/>
<path d="M3.25 8.56578L3.29751 8.36841H7.38377C7.95395 8.36841 8.38158 8.56578 8.52412 9.20722L9.4269 13.648C8.52412 11.2796 6.43348 9.35525 3.25 8.56578Z" fill="#F9B50B"/>
<path d="M15.1762 8.46707L11.0424 18.4835H8.23904L5.86331 10.0954C7.57384 11.2302 8.99928 13.0065 9.52194 14.2401L9.80703 15.2763L12.3728 8.41772H15.1762V8.46707Z" fill="#3362AB"/>
<path d="M16.269 8.41772H18.8823L17.2193 18.4835H14.606L16.269 8.41772Z" fill="#3362AB"/>
</svg>
