<svg width="39" height="27" viewBox="0 0 39 27" fill="none" xmlns="http://www.w3.org/2000/svg">
<path d="M0 3.375C0 1.51104 1.45507 0 3.25 0H35.75C37.5449 0 39 1.51104 39 3.375V23.625C39 25.489 37.5449 27 35.75 27H3.25C1.45507 27 0 25.489 0 23.625V3.375Z" fill="#D1EAFA"/>
<path d="M22.1377 13.1087L20.0181 10.712L17.663 12.8641L19.7826 15.3098L22.1377 13.1087Z" fill="#137ABE"/>
<path d="M15.9674 8.75543L18.0869 11.1522L20.442 9L18.3224 6.60326L15.9674 8.75543Z" fill="#137ABE"/>
<path d="M23.7862 17.2663L21.6666 14.8696L19.3116 17.0707L21.4311 19.4674L23.7862 17.2663Z" fill="#137ABE"/>
<path d="M21.3369 21.2772L17.4746 16.8261L18.5579 15.8478L15.8261 12.7174L16.9094 11.7391L14.1775 8.6087L18.4637 4.64674L19.8297 6.16304L22.1848 4.05978L23.5507 5.52717L24.4456 4.69565C24.2572 4.59783 24.0217 4.45109 23.8333 4.35326C22.4674 3.7663 21.0072 3.375 19.4529 3.375C14.0362 3.375 9.60867 7.92391 9.60867 13.5C9.60867 19.0761 14.0362 23.625 19.5 23.625C21.2898 23.625 22.9384 23.1359 24.3514 22.3043C24.8224 22.0109 25.2463 21.7174 25.6703 21.4239L23.692 19.125L21.3369 21.2772Z" fill="#137ABE"/>
<path d="M20.3007 7.58152L21.855 9.3913L23.6449 7.77717L22.0435 5.96739L20.3007 7.58152Z" fill="#137ABE"/>
<path d="M25.2464 11.3967L23.6449 9.58696L21.9021 11.25L23.5036 13.0109L25.2464 11.3967Z" fill="#137ABE"/>
<path d="M26.7536 15.212L25.1521 13.4022L23.4094 15.0163L25.0108 16.875L26.7536 15.212Z" fill="#137ABE"/>
<path d="M26.8478 9.24457L25.6703 10.3207L26.7536 11.5435L27.884 10.4674L26.8478 9.24457Z" fill="#137ABE"/>
<path d="M27.1775 13.8913L28.2137 15.1141L29.3913 14.038L28.3079 12.8152L27.1775 13.8913Z" fill="#137ABE"/>
<path d="M24.163 6.75L25.2464 7.97283L26.3768 6.89674L25.3406 5.67391L24.163 6.75Z" fill="#137ABE"/>
<path d="M24.9637 18.6848L26.5652 20.4946L28.3079 18.8804L26.7065 17.0707L24.9637 18.6848Z" fill="#137ABE"/>
</svg>
